<svg height="1680" width="1500" transform="translate(174, 58)"><g><g class="node" transform="translate(0, 989)"><g><rect height="55" width="136" y="2" x="2" stroke-width="1.5" stroke="#261D3D" fill="#e5def9"></rect><rect class="node-cursor" rx="15" id="svg_3" height="55" width="27" y="2" x="128" fill-opacity="null" stroke-opacity="null" stroke-width="1.5" stroke="#261D3D" fill="#261D3D"></rect><path class="node-cursor" d="m136.068832,43.620384l-2.59021,-2.617714l-2.588882,-2.618797l2.59024,-2.620651l2.588852,-2.618637l0,2.912262c0.634644,0 1.371964,0 1.619019,0c1.177826,0.058113 2.631546,-1.566666 4.178146,-3.661186c0.576538,-0.734396 1.158203,-1.542364 1.774643,-2.271933c-0.61644,-0.730408 -1.19722,-1.537476 -1.774643,-2.271835c-1.5466,-2.091599 -3.00032,-3.719345 -4.176544,-3.660141l-1.620621,-0.000969l0,2.916115l-2.588852,-2.61969l-2.59024,-2.621704l2.59024,-2.624466l2.588852,-2.620651l0,2.914246l1.619736,0c2.405655,0.059059 4.203537,2.563507 5.776794,4.598969c1.561798,2.147858 2.965622,3.764832 3.779846,3.660172l4.644531,0l0,4.652327l-4.646057,0c-0.813507,-0.105713 -2.218048,1.512314 -3.779678,3.66011c-1.57254,2.03653 -3.369781,4.538857 -5.776154,4.599007l-1.619019,0l0,2.915169l0,0z" stroke-opacity="null" stroke-width="1" stroke="#fff" fill="#261D3D"></path><text transform="matrix(0.970731, 0, 0, 1, 0.321963, 0)" text-anchor="start" font-family="Helvetica, Arial, sans-serif" font-size="15px" id="svg_9" y="28" x="11" fill-opacity="null" stroke-opacity="null" stroke-width="0" stroke="#000" fill="#000000">Actor<title>Actor</title></text></g></g><g class="node" transform="translate(576, 506)"><g><rect height="55" width="136" y="2" x="2" stroke-width="1.5" stroke="#261D3D" fill="#e5def9"></rect><rect class="node-cursor" rx="15" id="svg_3" height="55" width="27" y="2" x="128" fill-opacity="null" stroke-opacity="null" stroke-width="1.5" stroke="#261D3D" fill="#261D3D"></rect><path class="node-cursor" d="m136.068832,43.620384l-2.59021,-2.617714l-2.588882,-2.618797l2.59024,-2.620651l2.588852,-2.618637l0,2.912262c0.634644,0 1.371964,0 1.619019,0c1.177826,0.058113 2.631546,-1.566666 4.178146,-3.661186c0.576538,-0.734396 1.158203,-1.542364 1.774643,-2.271933c-0.61644,-0.730408 -1.19722,-1.537476 -1.774643,-2.271835c-1.5466,-2.091599 -3.00032,-3.719345 -4.176544,-3.660141l-1.620621,-0.000969l0,2.916115l-2.588852,-2.61969l-2.59024,-2.621704l2.59024,-2.624466l2.588852,-2.620651l0,2.914246l1.619736,0c2.405655,0.059059 4.203537,2.563507 5.776794,4.598969c1.561798,2.147858 2.965622,3.764832 3.779846,3.660172l4.644531,0l0,4.652327l-4.646057,0c-0.813507,-0.105713 -2.218048,1.512314 -3.779678,3.66011c-1.57254,2.03653 -3.369781,4.538857 -5.776154,4.599007l-1.619019,0l0,2.915169l0,0z" stroke-opacity="null" stroke-width="1" stroke="#fff" fill="#261D3D"></path><rect class="node-cursor" height="13" width="82.230823" y="43.461531" x="2.615396" stroke-opacity="null" stroke-width="1" stroke="#261D3D" fill="#261D3D"></rect><text class="node-cursor" text-anchor="start" font-family="Helvetica, Arial, sans-serif" font-size="10" id="svg_7" y="53.076916" x="27.615463" fill-opacity="null" stroke-opacity="null" stroke-width="0" stroke="#000" fill="#fff">Stories</text><text transform="matrix(0.970731, 0, 0, 1, 0.321963, 0)" text-anchor="start" font-family="Helvetica, Arial, sans-serif" font-size="15px" id="svg_9" y="28" x="11" fill-opacity="null" stroke-opacity="null" stroke-width="0" stroke="#000" fill="#000000">Staff Member<title>Staff Member</title></text></g></g><g class="node" transform="translate(1152, 92)"><g><rect height="55" width="136" y="2" x="2" stroke-width="1.5" stroke="#261D3D" fill="#e5def9"></rect><rect class="node-cursor" height="13" width="136" y="43.461531" x="2.615396" stroke-opacity="null" stroke-width="1" stroke="#261D3D" fill="#261D3D"></rect><text class="node-cursor" text-anchor="start" font-family="Helvetica, Arial, sans-serif" font-size="10" id="svg_7" y="53.076916" x="27.615463" fill-opacity="null" stroke-opacity="null" stroke-width="0" stroke="#000" fill="#fff">Stories</text><text transform="matrix(0.970731, 0, 0, 1, 0.321963, 0)" text-anchor="start" font-family="Helvetica, Arial, sans-serif" font-size="11px" id="svg_9" y="28" x="11" fill-opacity="null" stroke-opacity="null" stroke-width="0" stroke="#000" fill="#000000">E. Staff Member<title>Enforcement Staff Member</title></text></g></g><g class="node" transform="translate(1152, 184)"><g><rect height="55" width="136" y="2" x="2" stroke-width="1.5" stroke="#261D3D" fill="#e5def9"></rect><rect class="node-cursor" height="13" width="136" y="43.461531" x="2.615396" stroke-opacity="null" stroke-width="1" stroke="#261D3D" fill="#261D3D"></rect><text class="node-cursor" text-anchor="start" font-family="Helvetica, Arial, sans-serif" font-size="10" id="svg_7" y="53.076916" x="27.615463" fill-opacity="null" stroke-opacity="null" stroke-width="0" stroke="#000" fill="#fff">Stories</text><text transform="matrix(0.970731, 0, 0, 1, 0.321963, 0)" text-anchor="start" font-family="Helvetica, Arial, sans-serif" font-size="15px" id="svg_9" y="28" x="11" fill-opacity="null" stroke-opacity="null" stroke-width="0" stroke="#000" fill="#000000">L Staff Member<title>L Staff Member</title></text></g></g><g class="node" transform="translate(1152, 276)"><g><rect height="55" width="136" y="2" x="2" stroke-width="1.5" stroke="#261D3D" fill="#e5def9"></rect><rect class="node-cursor" height="13" width="136" y="43.461531" x="2.615396" stroke-opacity="null" stroke-width="1" stroke="#261D3D" fill="#261D3D"></rect><text class="node-cursor" text-anchor="start" font-family="Helvetica, Arial, sans-serif" font-size="10" id="svg_7" y="53.076916" x="27.615463" fill-opacity="null" stroke-opacity="null" stroke-width="0" stroke="#000" fill="#fff">Stories</text><text transform="matrix(0.970731, 0, 0, 1, 0.321963, 0)" text-anchor="start" font-family="Helvetica, Arial, sans-serif" font-size="13px" id="svg_9" y="28" x="11" fill-opacity="null" stroke-opacity="null" stroke-width="0" stroke="#000" fill="#000000">C. Staff Member<title>County Staff Member</title></text></g></g><g class="node" transform="translate(1152, 368)"><g><rect height="55" width="136" y="2" x="2" stroke-width="1.5" stroke="#261D3D" fill="#e5def9"></rect><rect class="node-cursor" height="13" width="136" y="43.461531" x="2.615396" stroke-opacity="null" stroke-width="1" stroke="#261D3D" fill="#261D3D"></rect><text class="node-cursor" text-anchor="start" font-family="Helvetica, Arial, sans-serif" font-size="10" id="svg_7" y="53.076916" x="27.615463" fill-opacity="null" stroke-opacity="null" stroke-width="0" stroke="#000" fill="#fff">Stories</text><text transform="matrix(0.970731, 0, 0, 1, 0.321963, 0)" text-anchor="start" font-family="Helvetica, Arial, sans-serif" font-size="12px" id="svg_9" y="28" x="11" fill-opacity="null" stroke-opacity="null" stroke-width="0" stroke="#000" fill="#000000">T. Staff Member<title>Technical Staff Member</title></text></g></g><g class="node" transform="translate(1152, 460)"><g><rect height="55" width="136" y="2" x="2" stroke-width="1.5" stroke="#261D3D" fill="#e5def9"></rect><rect class="node-cursor" height="13" width="136" y="43.461531" x="2.615396" stroke-opacity="null" stroke-width="1" stroke="#261D3D" fill="#261D3D"></rect><text class="node-cursor" text-anchor="start" font-family="Helvetica, Arial, sans-serif" font-size="10" id="svg_7" y="53.076916" x="27.615463" fill-opacity="null" stroke-opacity="null" stroke-width="0" stroke="#000" fill="#fff">Stories</text><text transform="matrix(0.970731, 0, 0, 1, 0.321963, 0)" text-anchor="start" font-family="Helvetica, Arial, sans-serif" font-size="12px" id="svg_9" y="28" x="11" fill-opacity="null" stroke-opacity="null" stroke-width="0" stroke="#000" fill="#000000">P. Staff Member<title>Planning Staff Member</title></text></g></g><g class="node" transform="translate(1152, 552)"><g><rect height="55" width="136" y="2" x="2" stroke-width="1.5" stroke="#261D3D" fill="#e5def9"></rect><rect class="node-cursor" height="13" width="136" y="43.461531" x="2.615396" stroke-opacity="null" stroke-width="1" stroke="#261D3D" fill="#261D3D"></rect><text class="node-cursor" text-anchor="start" font-family="Helvetica, Arial, sans-serif" font-size="10" id="svg_7" y="53.076916" x="27.615463" fill-opacity="null" stroke-opacity="null" stroke-width="0" stroke="#000" fill="#fff">Stories</text><text transform="matrix(0.970731, 0, 0, 1, 0.321963, 0)" text-anchor="start" font-family="Helvetica, Arial, sans-serif" font-size="13px" id="svg_9" y="28" x="11" fill-opacity="null" stroke-opacity="null" stroke-width="0" stroke="#000" fill="#000000">Z. Staff Member<title>Zoning Staff Member</title></text></g></g><g class="node" transform="translate(1152, 644)"><g><rect height="55" width="136" y="2" x="2" stroke-width="1.5" stroke="#261D3D" fill="#e5def9"></rect><rect class="node-cursor" height="13" width="136" y="43.461531" x="2.615396" stroke-opacity="null" stroke-width="1" stroke="#261D3D" fill="#261D3D"></rect><text class="node-cursor" text-anchor="start" font-family="Helvetica, Arial, sans-serif" font-size="10" id="svg_7" y="53.076916" x="27.615463" fill-opacity="null" stroke-opacity="null" stroke-width="0" stroke="#000" fill="#fff">Stories</text><text transform="matrix(0.970731, 0, 0, 1, 0.321963, 0)" text-anchor="start" font-family="Helvetica, Arial, sans-serif" font-size="11px" id="svg_9" y="28" x="11" fill-opacity="null" stroke-opacity="null" stroke-width="0" stroke="#000" fill="#000000">P. R. Staff Member<title>Plan Review Staff Member</title></text></g></g><g class="node" transform="translate(1152, 736)"><g><rect height="55" width="136" y="2" x="2" stroke-width="1.5" stroke="#261D3D" fill="#e5def9"></rect><rect class="node-cursor" height="13" width="136" y="43.461531" x="2.615396" stroke-opacity="null" stroke-width="1" stroke="#261D3D" fill="#261D3D"></rect><text class="node-cursor" text-anchor="start" font-family="Helvetica, Arial, sans-serif" font-size="10" id="svg_7" y="53.076916" x="27.615463" fill-opacity="null" stroke-opacity="null" stroke-width="0" stroke="#000" fill="#fff">Stories</text><text transform="matrix(0.970731, 0, 0, 1, 0.321963, 0)" text-anchor="start" font-family="Helvetica, Arial, sans-serif" font-size="13px" id="svg_9" y="28" x="11" fill-opacity="null" stroke-opacity="null" stroke-width="0" stroke="#000" fill="#000000">R. Staff Member<title>Review Staff Member</title></text></g></g><g class="node" transform="translate(1152, 828)"><g><rect height="55" width="136" y="2" x="2" stroke-width="1.5" stroke="#261D3D" fill="#e5def9"></rect><rect class="node-cursor" height="13" width="136" y="43.461531" x="2.615396" stroke-opacity="null" stroke-width="1" stroke="#261D3D" fill="#261D3D"></rect><text class="node-cursor" text-anchor="start" font-family="Helvetica, Arial, sans-serif" font-size="10" id="svg_7" y="53.076916" x="27.615463" fill-opacity="null" stroke-opacity="null" stroke-width="0" stroke="#000" fill="#fff">Stories</text><text transform="matrix(0.970731, 0, 0, 1, 0.321963, 0)" text-anchor="start" font-family="Helvetica, Arial, sans-serif" font-size="11px" id="svg_9" y="28" x="11" fill-opacity="null" stroke-opacity="null" stroke-width="0" stroke="#000" fill="#000000">D. Staff Member<title>Development Staff Member</title></text></g></g><g class="node" transform="translate(1152, 920)"><g><rect height="55" width="136" y="2" x="2" stroke-width="1.5" stroke="#261D3D" fill="#e5def9"></rect><rect class="node-cursor" height="13" width="136" y="43.461531" x="2.615396" stroke-opacity="null" stroke-width="1" stroke="#261D3D" fill="#261D3D"></rect><text class="node-cursor" text-anchor="start" font-family="Helvetica, Arial, sans-serif" font-size="10" id="svg_7" y="53.076916" x="27.615463" fill-opacity="null" stroke-opacity="null" stroke-width="0" stroke="#000" fill="#fff">Stories</text><text transform="matrix(0.970731, 0, 0, 1, 0.321963, 0)" text-anchor="start" font-family="Helvetica, Arial, sans-serif" font-size="12px" id="svg_9" y="28" x="11" fill-opacity="null" stroke-opacity="null" stroke-width="0" stroke="#000" fill="#000000">I. Staff Member<title>Inspection Staff Member</title></text></g></g><g class="node" transform="translate(576, 1104)"><g><rect height="55" width="136" y="2" x="2" stroke-width="1.5" stroke="#261D3D" fill="#e5def9"></rect><rect class="node-cursor" rx="15" id="svg_3" height="55" width="27" y="2" x="128" fill-opacity="null" stroke-opacity="null" stroke-width="1.5" stroke="#261D3D" fill="#261D3D"></rect><path class="node-cursor" d="m136.068832,43.620384l-2.59021,-2.617714l-2.588882,-2.618797l2.59024,-2.620651l2.588852,-2.618637l0,2.912262c0.634644,0 1.371964,0 1.619019,0c1.177826,0.058113 2.631546,-1.566666 4.178146,-3.661186c0.576538,-0.734396 1.158203,-1.542364 1.774643,-2.271933c-0.61644,-0.730408 -1.19722,-1.537476 -1.774643,-2.271835c-1.5466,-2.091599 -3.00032,-3.719345 -4.176544,-3.660141l-1.620621,-0.000969l0,2.916115l-2.588852,-2.61969l-2.59024,-2.621704l2.59024,-2.624466l2.588852,-2.620651l0,2.914246l1.619736,0c2.405655,0.059059 4.203537,2.563507 5.776794,4.598969c1.561798,2.147858 2.965622,3.764832 3.779846,3.660172l4.644531,0l0,4.652327l-4.646057,0c-0.813507,-0.105713 -2.218048,1.512314 -3.779678,3.66011c-1.57254,2.03653 -3.369781,4.538857 -5.776154,4.599007l-1.619019,0l0,2.915169l0,0z" stroke-opacity="null" stroke-width="1" stroke="#fff" fill="#261D3D"></path><rect class="node-cursor" height="13" width="82.230823" y="43.461531" x="2.615396" stroke-opacity="null" stroke-width="1" stroke="#261D3D" fill="#261D3D"></rect><text class="node-cursor" text-anchor="start" font-family="Helvetica, Arial, sans-serif" font-size="10" id="svg_7" y="53.076916" x="27.615463" fill-opacity="null" stroke-opacity="null" stroke-width="0" stroke="#000" fill="#fff">Stories</text><text transform="matrix(0.970731, 0, 0, 1, 0.321963, 0)" text-anchor="start" font-family="Helvetica, Arial, sans-serif" font-size="15px" id="svg_9" y="28" x="11" fill-opacity="null" stroke-opacity="null" stroke-width="0" stroke="#000" fill="#000000">Applicant<title>Applicant</title></text></g></g><g class="node" transform="translate(1152, 1104)"><g><rect height="55" width="136" y="2" x="2" stroke-width="1.5" stroke="#261D3D" fill="#e5def9"></rect><rect class="node-cursor" height="13" width="136" y="43.461531" x="2.615396" stroke-opacity="null" stroke-width="1" stroke="#261D3D" fill="#261D3D"></rect><text class="node-cursor" text-anchor="start" font-family="Helvetica, Arial, sans-serif" font-size="10" id="svg_7" y="53.076916" x="27.615463" fill-opacity="null" stroke-opacity="null" stroke-width="0" stroke="#000" fill="#fff">Stories</text><text transform="matrix(0.970731, 0, 0, 1, 0.321963, 0)" text-anchor="start" font-family="Helvetica, Arial, sans-serif" font-size="12px" id="svg_9" y="28" x="11" fill-opacity="null" stroke-opacity="null" stroke-width="0" stroke="#000" fill="#000000">Prospectiveapplicant<title>Prospectiveapplicant</title></text></g></g><g class="node" transform="translate(576, 1242)"><g><rect height="55" width="136" y="2" x="2" stroke-width="1.5" stroke="#261D3D" fill="#e5def9"></rect><rect class="node-cursor" height="13" width="136" y="43.461531" x="2.615396" stroke-opacity="null" stroke-width="1" stroke="#261D3D" fill="#261D3D"></rect><text class="node-cursor" text-anchor="start" font-family="Helvetica, Arial, sans-serif" font-size="10" id="svg_7" y="53.076916" x="27.615463" fill-opacity="null" stroke-opacity="null" stroke-width="0" stroke="#000" fill="#fff">Stories</text><text transform="matrix(0.970731, 0, 0, 1, 0.321963, 0)" text-anchor="start" font-family="Helvetica, Arial, sans-serif" font-size="15px" id="svg_9" y="28" x="11" fill-opacity="null" stroke-opacity="null" stroke-width="0" stroke="#000" fill="#000000">Customer<title>Customer</title></text></g></g><g class="node" transform="translate(576, 1380)"><g><rect height="55" width="136" y="2" x="2" stroke-width="1.5" stroke="#261D3D" fill="#e5def9"></rect><rect class="node-cursor" rx="15" id="svg_3" height="55" width="27" y="2" x="128" fill-opacity="null" stroke-opacity="null" stroke-width="1.5" stroke="#261D3D" fill="#261D3D"></rect><path class="node-cursor" d="m136.068832,43.620384l-2.59021,-2.617714l-2.588882,-2.618797l2.59024,-2.620651l2.588852,-2.618637l0,2.912262c0.634644,0 1.371964,0 1.619019,0c1.177826,0.058113 2.631546,-1.566666 4.178146,-3.661186c0.576538,-0.734396 1.158203,-1.542364 1.774643,-2.271933c-0.61644,-0.730408 -1.19722,-1.537476 -1.774643,-2.271835c-1.5466,-2.091599 -3.00032,-3.719345 -4.176544,-3.660141l-1.620621,-0.000969l0,2.916115l-2.588852,-2.61969l-2.59024,-2.621704l2.59024,-2.624466l2.588852,-2.620651l0,2.914246l1.619736,0c2.405655,0.059059 4.203537,2.563507 5.776794,4.598969c1.561798,2.147858 2.965622,3.764832 3.779846,3.660172l4.644531,0l0,4.652327l-4.646057,0c-0.813507,-0.105713 -2.218048,1.512314 -3.779678,3.66011c-1.57254,2.03653 -3.369781,4.538857 -5.776154,4.599007l-1.619019,0l0,2.915169l0,0z" stroke-opacity="null" stroke-width="1" stroke="#fff" fill="#261D3D"></path><text transform="matrix(0.970731, 0, 0, 1, 0.321963, 0)" text-anchor="start" font-family="Helvetica, Arial, sans-serif" font-size="13px" id="svg_9" y="28" x="11" fill-opacity="null" stroke-opacity="null" stroke-width="0" stroke="#000" fill="#000000">Staff Supervisor<title>Staff Supervisor</title></text></g></g><g class="node" transform="translate(1152, 1288)"><g><rect height="55" width="136" y="2" x="2" stroke-width="1.5" stroke="#261D3D" fill="#e5def9"></rect><rect class="node-cursor" height="13" width="136" y="43.461531" x="2.615396" stroke-opacity="null" stroke-width="1" stroke="#261D3D" fill="#261D3D"></rect><text class="node-cursor" text-anchor="start" font-family="Helvetica, Arial, sans-serif" font-size="10" id="svg_7" y="53.076916" x="27.615463" fill-opacity="null" stroke-opacity="null" stroke-width="0" stroke="#000" fill="#fff">Stories</text><text transform="matrix(0.970731, 0, 0, 1, 0.321963, 0)" text-anchor="start" font-family="Helvetica, Arial, sans-serif" font-size="11px" id="svg_9" y="28" x="11" fill-opacity="null" stroke-opacity="null" stroke-width="0" stroke="#000" fill="#000000">P. R. Staff Supervisor<title>Plan Review Staff Supervisor</title></text></g></g><g class="node" transform="translate(1152, 1380)"><g><rect height="55" width="136" y="2" x="2" stroke-width="1.5" stroke="#261D3D" fill="#e5def9"></rect><rect class="node-cursor" height="13" width="136" y="43.461531" x="2.615396" stroke-opacity="null" stroke-width="1" stroke="#261D3D" fill="#261D3D"></rect><text class="node-cursor" text-anchor="start" font-family="Helvetica, Arial, sans-serif" font-size="10" id="svg_7" y="53.076916" x="27.615463" fill-opacity="null" stroke-opacity="null" stroke-width="0" stroke="#000" fill="#fff">Stories</text><text transform="matrix(0.970731, 0, 0, 1, 0.321963, 0)" text-anchor="start" font-family="Helvetica, Arial, sans-serif" font-size="12px" id="svg_9" y="28" x="11" fill-opacity="null" stroke-opacity="null" stroke-width="0" stroke="#000" fill="#000000">R. Staff Supervisor<title>Review Staff Supervisor</title></text></g></g><g class="node" transform="translate(1152, 1472)"><g><rect height="55" width="136" y="2" x="2" stroke-width="1.5" stroke="#261D3D" fill="#e5def9"></rect><rect class="node-cursor" height="13" width="136" y="43.461531" x="2.615396" stroke-opacity="null" stroke-width="1" stroke="#261D3D" fill="#261D3D"></rect><text class="node-cursor" text-anchor="start" font-family="Helvetica, Arial, sans-serif" font-size="10" id="svg_7" y="53.076916" x="27.615463" fill-opacity="null" stroke-opacity="null" stroke-width="0" stroke="#000" fill="#fff">Stories</text><text transform="matrix(0.970731, 0, 0, 1, 0.321963, 0)" text-anchor="start" font-family="Helvetica, Arial, sans-serif" font-size="11px" id="svg_9" y="28" x="11" fill-opacity="null" stroke-opacity="null" stroke-width="0" stroke="#000" fill="#000000">I. Staff Supervisor<title>Inspection Staff Supervisor</title></text></g></g><g class="node" transform="translate(576, 1472)"><g><rect height="55" width="136" y="2" x="2" stroke-width="1.5" stroke="#261D3D" fill="#e5def9"></rect><rect class="node-cursor" height="13" width="136" y="43.461531" x="2.615396" stroke-opacity="null" stroke-width="1" stroke="#261D3D" fill="#261D3D"></rect><text class="node-cursor" text-anchor="start" font-family="Helvetica, Arial, sans-serif" font-size="10" id="svg_7" y="53.076916" x="27.615463" fill-opacity="null" stroke-opacity="null" stroke-width="0" stroke="#000" fill="#fff">Stories</text><text transform="matrix(0.970731, 0, 0, 1, 0.321963, 0)" text-anchor="start" font-family="Helvetica, Arial, sans-serif" font-size="15px" id="svg_9" y="28" x="11" fill-opacity="null" stroke-opacity="null" stroke-width="0" stroke="#000" fill="#000000">Inspector<title>Inspector</title></text></g></g><path fill="none" stroke="#261D3D" stroke-width="1.5" class="link" d="M154,1018C365,1018 365,535 576,535"></path><path fill="none" stroke="#261D3D" stroke-width="1.5" class="link" d="M154,1018C365,1018 365,1133 576,1133"></path><path fill="none" stroke="#261D3D" stroke-width="1.5" class="link" d="M154,1018C365,1018 365,1271 576,1271"></path><path fill="none" stroke="#261D3D" stroke-width="1.5" class="link" d="M154,1018C365,1018 365,1409 576,1409"></path><path fill="none" stroke="#261D3D" stroke-width="1.5" class="link" d="M154,1018C365,1018 365,1501 576,1501"></path><path fill="none" stroke="#261D3D" stroke-width="1.5" class="link" d="M730,535C941,535 941,121 1152,121"></path><path fill="none" stroke="#261D3D" stroke-width="1.5" class="link" d="M730,535C941,535 941,213 1152,213"></path><path fill="none" stroke="#261D3D" stroke-width="1.5" class="link" d="M730,535C941,535 941,305 1152,305"></path><path fill="none" stroke="#261D3D" stroke-width="1.5" class="link" d="M730,535C941,535 941,397 1152,397"></path><path fill="none" stroke="#261D3D" stroke-width="1.5" class="link" d="M730,535C941,535 941,489 1152,489"></path><path fill="none" stroke="#261D3D" stroke-width="1.5" class="link" d="M730,535C941,535 941,581 1152,581"></path><path fill="none" stroke="#261D3D" stroke-width="1.5" class="link" d="M730,535C941,535 941,673 1152,673"></path><path fill="none" stroke="#261D3D" stroke-width="1.5" class="link" d="M730,535C941,535 941,765 1152,765"></path><path fill="none" stroke="#261D3D" stroke-width="1.5" class="link" d="M730,535C941,535 941,857 1152,857"></path><path fill="none" stroke="#261D3D" stroke-width="1.5" class="link" d="M730,535C941,535 941,949 1152,949"></path><path fill="none" stroke="#261D3D" stroke-width="1.5" class="link" d="M730,1133C941,1133 941,1133 1152,1133"></path><path fill="none" stroke="#261D3D" stroke-width="1.5" class="link" d="M730,1409C941,1409 941,1317 1152,1317"></path><path fill="none" stroke="#261D3D" stroke-width="1.5" class="link" d="M730,1409C941,1409 941,1409 1152,1409"></path><path fill="none" stroke="#261D3D" stroke-width="1.5" class="link" d="M730,1409C941,1409 941,1501 1152,1501"></path></g></svg>