<svg name="svg-container-graph-id" style="height: 1800px; width: 1750px;"><defs><marker class="marker" id="marker-small" viewBox="0 -5 10 10" refX="16" refY="0" markerWidth="6" markerHeight="6" orient="auto" fill="#d3d3d3"><path d="M0,-5L10,0L0,5"></path></marker><marker class="marker" id="marker-small-highlighted" viewBox="0 -5 10 10" refX="16" refY="0" markerWidth="6" markerHeight="6" orient="auto" fill="#DBCAFC"><path d="M0,-5L10,0L0,5"></path></marker><marker class="marker" id="marker-medium" viewBox="0 -5 10 10" refX="17.333333333333332" refY="0" markerWidth="6" markerHeight="6" orient="auto" fill="#d3d3d3"><path d="M0,-5L10,0L0,5"></path></marker><marker class="marker" id="marker-medium-highlighted" viewBox="0 -5 10 10" refX="17.333333333333332" refY="0" markerWidth="6" markerHeight="6" orient="auto" fill="#DBCAFC"><path d="M0,-5L10,0L0,5"></path></marker><marker class="marker" id="marker-large" viewBox="0 -5 10 10" refX="18.666666666666668" refY="0" markerWidth="6" markerHeight="6" orient="auto" fill="#d3d3d3"><path d="M0,-5L10,0L0,5"></path></marker><marker class="marker" id="marker-large-highlighted" viewBox="0 -5 10 10" refX="18.666666666666668" refY="0" markerWidth="6" markerHeight="6" orient="auto" fill="#DBCAFC"><path d="M0,-5L10,0L0,5"></path></marker></defs><g id="graph-id-graph-container-zoomable" style="transition-duration: 0s;" transform="translate(-941,-1297.0000000000002) scale(2)"><g><path class="link" d="M835.9725713727235,802.7578438838084A0,0 0 0,1 909.3409919053041,883.5450362462838" style="stroke-width: 1.5; stroke: rgb(114, 133, 165); opacity: 1; fill: none; cursor: pointer;" marker-end="url(#marker-large)" id="109,108"></path><text style="fill: black; font-size: 8px; font-weight: normal;" dy="-1"><textPath href="#109,108" startOffset="50%">is-a</textPath></text></g><g><path class="link" d="M764.706075896296,955.0204768616845A0,0 0 0,1 835.9725713727235,802.7578438838084" style="stroke-width: 1.5; stroke: rgb(114, 133, 165); opacity: 1; fill: none; cursor: pointer;" marker-end="url(#marker-large)" id="110,109"></path><text style="fill: black; font-size: 8px; font-weight: normal;" dy="-1"><textPath href="#110,109" startOffset="50%">is-a</textPath></text></g><g><path class="link" d="M764.706075896296,955.0204768616845A0,0 0 0,1 780.5888853712418,1060.3018389885588" style="stroke-width: 1.5; stroke: rgb(115, 194, 251); opacity: 1; fill: none; cursor: pointer;" marker-end="url(#marker-large)" id="110,111"></path><text style="fill: black; font-size: 8px; font-weight: normal;" dy="-1"><textPath href="#110,111" startOffset="50%">login</textPath></text></g><g><path class="link" d="M780.5888853712418,1060.3018389885588A0,0 0 0,1 786.4376755888937,1148.8573202073876" style="stroke-width: 1.5; stroke: rgb(79, 151, 163); opacity: 1; fill: none; cursor: pointer;" marker-end="url(#marker-large)" id="111,112"></path><text style="fill: black; font-size: 8px; font-weight: normal;" dy="-1"><textPath href="#111,112" startOffset="50%">see</textPath></text></g><g><path class="link" d="M764.706075896296,955.0204768616845A0,0 0 0,1 663.4687923015028,918.5384719079599" style="stroke-width: 1.5; stroke: rgb(115, 194, 251); opacity: 1; fill: none; cursor: pointer;" marker-end="url(#marker-large)" id="110,113"></path><text style="fill: black; font-size: 8px; font-weight: normal;" dy="-1"><textPath href="#110,113" startOffset="50%">choose</textPath></text></g><g><path class="link" d="M663.4687923015028,918.5384719079599A0,0 0 0,1 560.0289187985692,915.0519780298508" style="stroke-width: 1.5; stroke: rgb(79, 151, 163); opacity: 1; fill: none; cursor: pointer;" marker-end="url(#marker-large)" id="113,114"></path><text style="fill: black; font-size: 8px; font-weight: normal;" dy="-1"><textPath href="#113,114" startOffset="50%">see</textPath></text></g><g><path class="link" d="M764.706075896296,955.0204768616845A0,0 0 0,1 669.7701989278769,996.2315710204372" style="stroke-width: 1.5; stroke: rgb(115, 194, 251); opacity: 1; fill: none; cursor: pointer;" marker-end="url(#marker-large)" id="110,115"></path><text style="fill: black; font-size: 8px; font-weight: normal;" dy="-1"><textPath href="#110,115" startOffset="50%">input</textPath></text></g><g><path class="link" d="M669.7701989278769,996.2315710204372A0,0 0 0,1 591.7846383211723,1066.8272366062624" style="stroke-width: 1.5; stroke: rgb(79, 151, 163); opacity: 1; fill: none; cursor: pointer;" marker-end="url(#marker-large)" id="115,116"></path><text style="fill: black; font-size: 8px; font-weight: normal;" dy="-1"><textPath href="#115,116" startOffset="50%">see</textPath></text></g><g><path class="link" d="M764.706075896296,955.0204768616845A0,0 0 0,1 859.1432635321105,901.8821752221106" style="stroke-width: 1.5; stroke: rgb(115, 194, 251); opacity: 1; fill: none; cursor: pointer;" marker-end="url(#marker-large)" id="110,117"></path><text style="fill: black; font-size: 8px; font-weight: normal;" dy="-1"><textPath href="#110,117" startOffset="50%">add</textPath></text></g><g><path class="link" d="M764.706075896296,955.0204768616845A0,0 0 0,1 892.2642338089773,978.0469567004656" style="stroke-width: 1.5; stroke: rgb(115, 194, 251); opacity: 1; fill: none; cursor: pointer;" marker-end="url(#marker-large)" id="110,118"></path><text style="fill: black; font-size: 8px; font-weight: normal;" dy="-1"><textPath href="#110,118" startOffset="50%">see</textPath></text></g><g><path class="link" d="M764.706075896296,955.0204768616845A0,0 0 0,1 834.636635462592,1038.3917955245527" style="stroke-width: 1.5; stroke: rgb(115, 194, 251); opacity: 1; fill: none; cursor: pointer;" marker-end="url(#marker-large)" id="110,119"></path><text style="fill: black; font-size: 8px; font-weight: normal;" dy="-1"><textPath href="#110,119" startOffset="50%">assign</textPath></text></g><g><path class="link" d="M764.706075896296,955.0204768616845A0,0 0 0,1 864.6560009341914,1005.2110593093622" style="stroke-width: 1.5; stroke: rgb(115, 194, 251); opacity: 1; fill: none; cursor: pointer;" marker-end="url(#marker-large)" id="110,120"></path><text style="fill: black; font-size: 8px; font-weight: normal;" dy="-1"><textPath href="#110,120" startOffset="50%">see</textPath></text></g><g><path class="link" d="M764.706075896296,955.0204768616845A0,0 0 0,1 732.0010646019327,1049.837331384846" style="stroke-width: 1.5; stroke: rgb(115, 194, 251); opacity: 1; fill: none; cursor: pointer;" marker-end="url(#marker-large)" id="110,121"></path><text style="fill: black; font-size: 8px; font-weight: normal;" dy="-1"><textPath href="#110,121" startOffset="50%">filter</textPath></text></g><g><path class="link" d="M732.0010646019327,1049.837331384846A0,0 0 0,1 653.6872875994186,1146.608131656453" style="stroke-width: 1.5; stroke: rgb(79, 151, 163); opacity: 1; fill: none; cursor: pointer;" marker-end="url(#marker-large)" id="121,122"></path><text style="fill: black; font-size: 8px; font-weight: normal;" dy="-1"><textPath href="#121,122" startOffset="50%">focus</textPath></text></g><g><path class="link" d="M764.706075896296,955.0204768616845A0,0 0 0,1 710.2334587604632,859.8660349030748" style="stroke-width: 1.5; stroke: rgb(115, 194, 251); opacity: 1; fill: none; cursor: pointer;" marker-end="url(#marker-large)" id="110,123"></path><text style="fill: black; font-size: 8px; font-weight: normal;" dy="-1"><textPath href="#110,123" startOffset="50%">sort</textPath></text></g><g><path class="link" d="M835.9725713727235,802.7578438838084A0,0 0 0,1 693.8581882472519,801.4606378658705" style="stroke-width: 1.5; stroke: rgb(115, 194, 251); opacity: 1; fill: none; cursor: pointer;" marker-end="url(#marker-large)" id="109,124"></path><text style="fill: black; font-size: 8px; font-weight: normal;" dy="-1"><textPath href="#109,124" startOffset="50%">create</textPath></text></g><g><path class="link" d="M693.8581882472519,801.4606378658705A0,0 0 0,1 613.9588461955502,853.9575940971946" style="stroke-width: 1.5; stroke: rgb(79, 151, 163); opacity: 1; fill: none; cursor: pointer;" marker-end="url(#marker-large)" id="124,125"></path><text style="fill: black; font-size: 8px; font-weight: normal;" dy="-1"><textPath href="#124,125" startOffset="50%">use</textPath></text></g><g><path class="link" d="M959.4223585241175,1003.5126615061696A0,0 0 0,1 909.3409919053041,883.5450362462838" style="stroke-width: 1.5; stroke: rgb(114, 133, 165); opacity: 1; fill: none; cursor: pointer;" marker-end="url(#marker-large)" id="126,108"></path><text style="fill: black; font-size: 8px; font-weight: normal;" dy="-1"><textPath href="#126,108" startOffset="50%">is-a</textPath></text></g><g><path class="link" d="M959.4223585241175,1003.5126615061696A0,0 0 0,1 1048.441814102463,1047.5847636958758" style="stroke-width: 1.5; stroke: rgb(115, 194, 251); opacity: 1; fill: none; cursor: pointer;" marker-end="url(#marker-large)" id="126,127"></path><text style="fill: black; font-size: 8px; font-weight: normal;" dy="-1"><textPath href="#126,127" startOffset="50%">create</textPath></text></g><g><path class="link" d="M959.4223585241175,1003.5126615061696A0,0 0 0,1 1043.045890101013,958.2290389744294" style="stroke-width: 1.5; stroke: rgb(115, 194, 251); opacity: 1; fill: none; cursor: pointer;" marker-end="url(#marker-large)" id="126,128"></path><text style="fill: black; font-size: 8px; font-weight: normal;" dy="-1"><textPath href="#126,128" startOffset="50%">assign</textPath></text></g><g><path class="link" d="M1043.045890101013,958.2290389744294A0,0 0 0,1 1066.3884493178766,820.6125997835574" style="stroke-width: 1.5; stroke: rgb(79, 151, 163); opacity: 1; fill: none; cursor: pointer;" marker-end="url(#marker-large)" id="128,129"></path><text style="fill: black; font-size: 8px; font-weight: normal;" dy="-1"><textPath href="#128,129" startOffset="50%">collaborate</textPath></text></g><g><path class="link" d="M959.4223585241175,1003.5126615061696A0,0 0 0,1 964.7447336857056,1120.3380462940436" style="stroke-width: 1.5; stroke: rgb(115, 194, 251); opacity: 1; fill: none; cursor: pointer;" marker-end="url(#marker-large)" id="126,130"></path><text style="fill: black; font-size: 8px; font-weight: normal;" dy="-1"><textPath href="#126,130" startOffset="50%">assign</textPath></text></g><g><path class="link" d="M964.7447336857056,1120.3380462940436A0,0 0 0,1 1060.9410740619387,1085.0779940159846" style="stroke-width: 1.5; stroke: rgb(79, 151, 163); opacity: 1; fill: none; cursor: pointer;" marker-end="url(#marker-large)" id="130,131"></path><text style="fill: black; font-size: 8px; font-weight: normal;" dy="-1"><textPath href="#130,131" startOffset="50%">estimate</textPath></text></g><g class="node" cx="909.3409919053041" cy="883.5450362462838" id="108" transform="translate(909.3409919053041,883.5450362462838)"><path cursor="pointer" opacity="1" d="M6.90988298942671,0A6.90988298942671,6.90988298942671,0,1,1,-6.90988298942671,0A6.90988298942671,6.90988298942671,0,1,1,6.90988298942671,0" fill="#003152" stroke="none" stroke-width="1.5"></path><text dx="11" dy=".35em" fill="black" font-size="8" font-weight="normal" opacity="1">Actor</text></g><g class="node" cx="835.9725713727235" cy="802.7578438838084" id="109" transform="translate(835.9725713727235,802.7578438838084)"><path cursor="pointer" opacity="1" d="M6.90988298942671,0A6.90988298942671,6.90988298942671,0,1,1,-6.90988298942671,0A6.90988298942671,6.90988298942671,0,1,1,6.90988298942671,0" fill="#003152" stroke="none" stroke-width="1.5"></path><text dx="11" dy=".35em" fill="black" font-size="8" font-weight="normal" opacity="1">User</text></g><g class="node" cx="764.706075896296" cy="955.0204768616845" id="110" transform="translate(764.706075896296,955.0204768616845)"><path cursor="pointer" opacity="1" d="M6.90988298942671,0A6.90988298942671,6.90988298942671,0,1,1,-6.90988298942671,0A6.90988298942671,6.90988298942671,0,1,1,6.90988298942671,0" fill="#003152" stroke="none" stroke-width="1.5"></path><text dx="11" dy=".35em" fill="black" font-size="8" font-weight="normal" opacity="1">Signed User</text></g><g class="node" cx="780.5888853712418" cy="1060.3018389885588" id="111" transform="translate(780.5888853712418,1060.3018389885588)"><path cursor="pointer" opacity="1" d="M6.90988298942671,0A6.90988298942671,6.90988298942671,0,1,1,-6.90988298942671,0A6.90988298942671,6.90988298942671,0,1,1,6.90988298942671,0" fill="#1034A6" stroke="none" stroke-width="1.5"></path><text dx="11" dy=".35em" fill="black" font-size="8" font-weight="normal" opacity="1">account</text></g><g class="node" cx="786.4376755888937" cy="1148.8573202073876" id="112" transform="translate(786.4376755888937,1148.8573202073876)"><path cursor="pointer" opacity="1" d="M6.90988298942671,0A6.90988298942671,6.90988298942671,0,1,1,-6.90988298942671,0A6.90988298942671,6.90988298942671,0,1,1,6.90988298942671,0" fill="#008081" stroke="none" stroke-width="1.5"></path><text dx="11" dy=".35em" fill="black" font-size="8" font-weight="normal" opacity="1">me</text></g><g class="node" cx="663.4687923015028" cy="918.5384719079599" id="113" transform="translate(663.4687923015028,918.5384719079599)"><path cursor="pointer" opacity="1" d="M6.90988298942671,0A6.90988298942671,6.90988298942671,0,1,1,-6.90988298942671,0A6.90988298942671,6.90988298942671,0,1,1,6.90988298942671,0" fill="#1034A6" stroke="none" stroke-width="1.5"></path><text dx="11" dy=".35em" fill="black" font-size="8" font-weight="normal" opacity="1">project</text></g><g class="node" cx="560.0289187985692" cy="915.0519780298508" id="114" transform="translate(560.0289187985692,915.0519780298508)"><path cursor="pointer" opacity="1" d="M6.90988298942671,0A6.90988298942671,6.90988298942671,0,1,1,-6.90988298942671,0A6.90988298942671,6.90988298942671,0,1,1,6.90988298942671,0" fill="#008081" stroke="none" stroke-width="1.5"></path><text dx="11" dy=".35em" fill="black" font-size="8" font-weight="normal" opacity="1">project</text></g><g class="node" cx="669.7701989278769" cy="996.2315710204372" id="115" transform="translate(669.7701989278769,996.2315710204372)"><path cursor="pointer" opacity="1" d="M6.90988298942671,0A6.90988298942671,6.90988298942671,0,1,1,-6.90988298942671,0A6.90988298942671,6.90988298942671,0,1,1,6.90988298942671,0" fill="#1034A6" stroke="none" stroke-width="1.5"></path><text dx="11" dy=".35em" fill="black" font-size="8" font-weight="normal" opacity="1">stories</text></g><g class="node" cx="591.7846383211723" cy="1066.8272366062624" id="116" transform="translate(591.7846383211723,1066.8272366062624)"><path cursor="pointer" opacity="1" d="M6.90988298942671,0A6.90988298942671,6.90988298942671,0,1,1,-6.90988298942671,0A6.90988298942671,6.90988298942671,0,1,1,6.90988298942671,0" fill="#008081" stroke="none" stroke-width="1.5"></path><text dx="11" dy=".35em" fill="black" font-size="8" font-weight="normal" opacity="1">visualizations</text></g><g class="node" cx="859.1432635321105" cy="901.8821752221106" id="117" transform="translate(859.1432635321105,901.8821752221106)"><path cursor="pointer" opacity="1" d="M6.90988298942671,0A6.90988298942671,6.90988298942671,0,1,1,-6.90988298942671,0A6.90988298942671,6.90988298942671,0,1,1,6.90988298942671,0" fill="#1034A6" stroke="none" stroke-width="1.5"></path><text dx="11" dy=".35em" fill="black" font-size="8" font-weight="normal" opacity="1">stories</text></g><g class="node" cx="892.2642338089773" cy="978.0469567004656" id="118" transform="translate(892.2642338089773,978.0469567004656)"><path cursor="pointer" opacity="1" d="M6.90988298942671,0A6.90988298942671,6.90988298942671,0,1,1,-6.90988298942671,0A6.90988298942671,6.90988298942671,0,1,1,6.90988298942671,0" fill="#1034A6" stroke="none" stroke-width="1.5"></path><text dx="11" dy=".35em" fill="black" font-size="8" font-weight="normal" opacity="1">stories</text></g><g class="node" cx="834.636635462592" cy="1038.3917955245527" id="119" transform="translate(834.636635462592,1038.3917955245527)"><path cursor="pointer" opacity="1" d="M6.90988298942671,0A6.90988298942671,6.90988298942671,0,1,1,-6.90988298942671,0A6.90988298942671,6.90988298942671,0,1,1,6.90988298942671,0" fill="#1034A6" stroke="none" stroke-width="1.5"></path><text dx="11" dy=".35em" fill="black" font-size="8" font-weight="normal" opacity="1">values</text></g><g class="node" cx="864.6560009341914" cy="1005.2110593093622" id="120" transform="translate(864.6560009341914,1005.2110593093622)"><path cursor="pointer" opacity="1" d="M6.90988298942671,0A6.90988298942671,6.90988298942671,0,1,1,-6.90988298942671,0A6.90988298942671,6.90988298942671,0,1,1,6.90988298942671,0" fill="#1034A6" stroke="none" stroke-width="1.5"></path><text dx="11" dy=".35em" fill="black" font-size="8" font-weight="normal" opacity="1">actors</text></g><g class="node" cx="732.0010646019327" cy="1049.837331384846" id="121" transform="translate(732.0010646019327,1049.837331384846)"><path cursor="pointer" opacity="1" d="M6.90988298942671,0A6.90988298942671,6.90988298942671,0,1,1,-6.90988298942671,0A6.90988298942671,6.90988298942671,0,1,1,6.90988298942671,0" fill="#1034A6" stroke="none" stroke-width="1.5"></path><text dx="11" dy=".35em" fill="black" font-size="8" font-weight="normal" opacity="1">stories</text></g><g class="node" cx="653.6872875994186" cy="1146.608131656453" id="122" transform="translate(653.6872875994186,1146.608131656453)"><path cursor="pointer" opacity="1" d="M6.90988298942671,0A6.90988298942671,6.90988298942671,0,1,1,-6.90988298942671,0A6.90988298942671,6.90988298942671,0,1,1,6.90988298942671,0" fill="#008081" stroke="none" stroke-width="1.5"></path><text dx="11" dy=".35em" fill="black" font-size="8" font-weight="normal" opacity="1">parts</text></g><g class="node" cx="710.2334587604632" cy="859.8660349030748" id="123" transform="translate(710.2334587604632,859.8660349030748)"><path cursor="pointer" opacity="1" d="M6.90988298942671,0A6.90988298942671,6.90988298942671,0,1,1,-6.90988298942671,0A6.90988298942671,6.90988298942671,0,1,1,6.90988298942671,0" fill="#1034A6" stroke="none" stroke-width="1.5"></path><text dx="11" dy=".35em" fill="black" font-size="8" font-weight="normal" opacity="1">stories</text></g><g class="node" cx="693.8581882472519" cy="801.4606378658705" id="124" transform="translate(693.8581882472519,801.4606378658705)"><path cursor="pointer" opacity="1" d="M6.90988298942671,0A6.90988298942671,6.90988298942671,0,1,1,-6.90988298942671,0A6.90988298942671,6.90988298942671,0,1,1,6.90988298942671,0" fill="#1034A6" stroke="none" stroke-width="1.5"></path><text dx="11" dy=".35em" fill="black" font-size="8" font-weight="normal" opacity="1">account</text></g><g class="node" cx="613.9588461955502" cy="853.9575940971946" id="125" transform="translate(613.9588461955502,853.9575940971946)"><path cursor="pointer" opacity="1" d="M6.90988298942671,0A6.90988298942671,6.90988298942671,0,1,1,-6.90988298942671,0A6.90988298942671,6.90988298942671,0,1,1,6.90988298942671,0" fill="#008081" stroke="none" stroke-width="1.5"></path><text dx="11" dy=".35em" fill="black" font-size="8" font-weight="normal" opacity="1">application</text></g><g class="node" cx="959.4223585241175" cy="1003.5126615061696" id="126" transform="translate(959.4223585241175,1003.5126615061696)"><path cursor="pointer" opacity="1" d="M6.90988298942671,0A6.90988298942671,6.90988298942671,0,1,1,-6.90988298942671,0A6.90988298942671,6.90988298942671,0,1,1,6.90988298942671,0" fill="#003152" stroke="none" stroke-width="1.5"></path><text dx="11" dy=".35em" fill="black" font-size="8" font-weight="normal" opacity="1">Project Manager</text></g><g class="node" cx="1048.441814102463" cy="1047.5847636958758" id="127" transform="translate(1048.441814102463,1047.5847636958758)"><path cursor="pointer" opacity="1" d="M6.90988298942671,0A6.90988298942671,6.90988298942671,0,1,1,-6.90988298942671,0A6.90988298942671,6.90988298942671,0,1,1,6.90988298942671,0" fill="#1034A6" stroke="none" stroke-width="1.5"></path><text dx="11" dy=".35em" fill="black" font-size="8" font-weight="normal" opacity="1">projects</text></g><g class="node" cx="1043.045890101013" cy="958.2290389744294" id="128" transform="translate(1043.045890101013,958.2290389744294)"><path cursor="pointer" opacity="1" d="M6.90988298942671,0A6.90988298942671,6.90988298942671,0,1,1,-6.90988298942671,0A6.90988298942671,6.90988298942671,0,1,1,6.90988298942671,0" fill="#1034A6" stroke="none" stroke-width="1.5"></path><text dx="11" dy=".35em" fill="black" font-size="8" font-weight="normal" opacity="1">projects</text></g><g class="node" cx="1066.3884493178766" cy="820.6125997835574" id="129" transform="translate(1066.3884493178766,820.6125997835574)"><path cursor="pointer" opacity="1" d="M6.90988298942671,0A6.90988298942671,6.90988298942671,0,1,1,-6.90988298942671,0A6.90988298942671,6.90988298942671,0,1,1,6.90988298942671,0" fill="#008081" stroke="none" stroke-width="1.5"></path><text dx="11" dy=".35em" fill="black" font-size="8" font-weight="normal" opacity="1">other</text></g><g class="node" cx="964.7447336857056" cy="1120.3380462940436" id="130" transform="translate(964.7447336857056,1120.3380462940436)"><path cursor="pointer" opacity="1" d="M6.90988298942671,0A6.90988298942671,6.90988298942671,0,1,1,-6.90988298942671,0A6.90988298942671,6.90988298942671,0,1,1,6.90988298942671,0" fill="#1034A6" stroke="none" stroke-width="1.5"></path><text dx="11" dy=".35em" fill="black" font-size="8" font-weight="normal" opacity="1">estimates</text></g><g class="node" cx="1060.9410740619387" cy="1085.0779940159846" id="131" transform="translate(1060.9410740619387,1085.0779940159846)"><path cursor="pointer" opacity="1" d="M6.90988298942671,0A6.90988298942671,6.90988298942671,0,1,1,-6.90988298942671,0A6.90988298942671,6.90988298942671,0,1,1,6.90988298942671,0" fill="#008081" stroke="none" stroke-width="1.5"></path><text dx="11" dy=".35em" fill="black" font-size="8" font-weight="normal" opacity="1">effort</text></g></g></svg>
