<svg name="svg-container-graph-id" style="height: 1800px; width: 1750px;"><defs><marker class="marker" id="marker-small" viewBox="0 -5 10 10" refX="16" refY="0" markerWidth="6" markerHeight="6" orient="auto" fill="#d3d3d3"><path d="M0,-5L10,0L0,5"></path></marker><marker class="marker" id="marker-small-highlighted" viewBox="0 -5 10 10" refX="16" refY="0" markerWidth="6" markerHeight="6" orient="auto" fill="#DBCAFC"><path d="M0,-5L10,0L0,5"></path></marker><marker class="marker" id="marker-medium" viewBox="0 -5 10 10" refX="17.333333333333332" refY="0" markerWidth="6" markerHeight="6" orient="auto" fill="#d3d3d3"><path d="M0,-5L10,0L0,5"></path></marker><marker class="marker" id="marker-medium-highlighted" viewBox="0 -5 10 10" refX="17.333333333333332" refY="0" markerWidth="6" markerHeight="6" orient="auto" fill="#DBCAFC"><path d="M0,-5L10,0L0,5"></path></marker><marker class="marker" id="marker-large" viewBox="0 -5 10 10" refX="18.666666666666668" refY="0" markerWidth="6" markerHeight="6" orient="auto" fill="#d3d3d3"><path d="M0,-5L10,0L0,5"></path></marker><marker class="marker" id="marker-large-highlighted" viewBox="0 -5 10 10" refX="18.666666666666668" refY="0" markerWidth="6" markerHeight="6" orient="auto" fill="#DBCAFC"><path d="M0,-5L10,0L0,5"></path></marker></defs><g id="graph-id-graph-container-zoomable" style="transition-duration: 0s;" transform="translate(-289.7792108109504,-620.383765016209) scale(1.214194884395047)"><g><path class="link" d="M839.411358724017,866.5305208525476A0,0 0 0,1 734.2837998954907,865.4913836498902" style="stroke-width: 1.5; stroke: rgb(114, 133, 165); opacity: 1; fill: none; cursor: pointer;" marker-end="url(#marker-large)" id="221,220"></path><text style="fill: black; font-size: 8px; font-weight: normal;" dy="-1"><textPath href="#221,220" startOffset="50%">is-a</textPath></text></g><g><path class="link" d="M762.8800839494585,944.7434606863075A0,0 0 0,1 839.411358724017,866.5305208525476" style="stroke-width: 1.5; stroke: rgb(114, 133, 165); opacity: 1; fill: none; cursor: pointer;" marker-end="url(#marker-large)" id="222,221"></path><text style="fill: black; font-size: 8px; font-weight: normal;" dy="-1"><textPath href="#222,221" startOffset="50%">is-a</textPath></text></g><g><path class="link" d="M762.8800839494585,944.7434606863075A0,0 0 0,1 743.7230511772739,1049.1244702901638" style="stroke-width: 1.5; stroke: rgb(115, 194, 251); opacity: 1; fill: none; cursor: pointer;" marker-end="url(#marker-large)" id="222,223"></path><text style="fill: black; font-size: 8px; font-weight: normal;" dy="-1"><textPath href="#222,223" startOffset="50%">research</textPath></text></g><g><path class="link" d="M743.7230511772739,1049.1244702901638A0,0 0 0,1 821.0193669916147,1119.5426829989403" style="stroke-width: 1.5; stroke: rgb(79, 151, 163); opacity: 1; fill: none; cursor: pointer;" marker-end="url(#marker-large)" id="223,224"></path><text style="fill: black; font-size: 8px; font-weight: normal;" dy="-1"><textPath href="#223,224" startOffset="50%">find</textPath></text></g><g><path class="link" d="M839.411358724017,866.5305208525476A0,0 0 0,1 891.8437307088865,771.5015824301416" style="stroke-width: 1.5; stroke: rgb(115, 194, 251); opacity: 1; fill: none; cursor: pointer;" marker-end="url(#marker-large)" id="221,225"></path><text style="fill: black; font-size: 8px; font-weight: normal;" dy="-1"><textPath href="#221,225" startOffset="50%">request</textPath></text></g><g><path class="link" d="M891.8437307088865,771.5015824301416A0,0 0 0,1 973.4715069295154,701.9379462406687" style="stroke-width: 1.5; stroke: rgb(79, 151, 163); opacity: 1; fill: none; cursor: pointer;" marker-end="url(#marker-large)" id="225,226"></path><text style="fill: black; font-size: 8px; font-weight: normal;" dy="-1"><textPath href="#225,226" startOffset="50%">receive</textPath></text></g><g><path class="link" d="M839.411358724017,866.5305208525476A0,0 0 0,1 820.0473063922742,760.8113537010673" style="stroke-width: 1.5; stroke: rgb(115, 194, 251); opacity: 1; fill: none; cursor: pointer;" marker-end="url(#marker-large)" id="221,227"></path><text style="fill: black; font-size: 8px; font-weight: normal;" dy="-1"><textPath href="#221,227" startOffset="50%">submit</textPath></text></g><g><path class="link" d="M820.0473063922742,760.8113537010673A0,0 0 0,1 854.7850779567376,660.265549804429" style="stroke-width: 1.5; stroke: rgb(79, 151, 163); opacity: 1; fill: none; cursor: pointer;" marker-end="url(#marker-large)" id="227,228"></path><text style="fill: black; font-size: 8px; font-weight: normal;" dy="-1"><textPath href="#227,228" startOffset="50%">provide</textPath></text></g><g><path class="link" d="M839.411358724017,866.5305208525476A0,0 0 0,1 945.5388361026309,890.5982393319874" style="stroke-width: 1.5; stroke: rgb(115, 194, 251); opacity: 1; fill: none; cursor: pointer;" marker-end="url(#marker-large)" id="221,229"></path><text style="fill: black; font-size: 8px; font-weight: normal;" dy="-1"><textPath href="#221,229" startOffset="50%">submit</textPath></text></g><g><path class="link" d="M945.5388361026309,890.5982393319874A0,0 0 0,1 1052.7274024102703,905.2832722371548" style="stroke-width: 1.5; stroke: rgb(79, 151, 163); opacity: 1; fill: none; cursor: pointer;" marker-end="url(#marker-large)" id="229,230"></path><text style="fill: black; font-size: 8px; font-weight: normal;" dy="-1"><textPath href="#229,230" startOffset="50%">satisfy</textPath></text></g><g><path class="link" d="M839.411358724017,866.5305208525476A0,0 0 0,1 837.5940365686062,972.9326178510104" style="stroke-width: 1.5; stroke: rgb(115, 194, 251); opacity: 1; fill: none; cursor: pointer;" marker-end="url(#marker-large)" id="221,231"></path><text style="fill: black; font-size: 8px; font-weight: normal;" dy="-1"><textPath href="#221,231" startOffset="50%">pay</textPath></text></g><g><path class="link" d="M837.5940365686062,972.9326178510104A0,0 0 0,1 905.7773266446873,1054.8328084170137" style="stroke-width: 1.5; stroke: rgb(79, 151, 163); opacity: 1; fill: none; cursor: pointer;" marker-end="url(#marker-large)" id="231,232"></path><text style="fill: black; font-size: 8px; font-weight: normal;" dy="-1"><textPath href="#231,232" startOffset="50%">satisfy</textPath></text></g><g><path class="link" d="M839.411358724017,866.5305208525476A0,0 0 0,1 910.4745895344026,948.0970906749131" style="stroke-width: 1.5; stroke: rgb(115, 194, 251); opacity: 1; fill: none; cursor: pointer;" marker-end="url(#marker-large)" id="221,233"></path><text style="fill: black; font-size: 8px; font-weight: normal;" dy="-1"><textPath href="#221,233" startOffset="50%">check</textPath></text></g><g><path class="link" d="M910.4745895344026,948.0970906749131A0,0 0 0,1 1004.3701776492605,1001.6426505504352" style="stroke-width: 1.5; stroke: rgb(79, 151, 163); opacity: 1; fill: none; cursor: pointer;" marker-end="url(#marker-large)" id="233,234"></path><text style="fill: black; font-size: 8px; font-weight: normal;" dy="-1"><textPath href="#233,234" startOffset="50%">understand</textPath></text></g><g><path class="link" d="M839.411358724017,866.5305208525476A0,0 0 0,1 939.071797943482,823.1869950053341" style="stroke-width: 1.5; stroke: rgb(115, 194, 251); opacity: 1; fill: none; cursor: pointer;" marker-end="url(#marker-large)" id="221,235"></path><text style="fill: black; font-size: 8px; font-weight: normal;" dy="-1"><textPath href="#221,235" startOffset="50%">modify</textPath></text></g><g><path class="link" d="M939.071797943482,823.1869950053341A0,0 0 0,1 1042.102498726273,790.4537442522326" style="stroke-width: 1.5; stroke: rgb(79, 151, 163); opacity: 1; fill: none; cursor: pointer;" marker-end="url(#marker-large)" id="235,236"></path><text style="fill: black; font-size: 8px; font-weight: normal;" dy="-1"><textPath href="#235,236" startOffset="50%">change</textPath></text></g><g><path class="link" d="M714.2033258538085,765.8471149942116A0,0 0 0,1 734.2837998954907,865.4913836498902" style="stroke-width: 1.5; stroke: rgb(114, 133, 165); opacity: 1; fill: none; cursor: pointer;" marker-end="url(#marker-large)" id="237,220"></path><text style="fill: black; font-size: 8px; font-weight: normal;" dy="-1"><textPath href="#237,220" startOffset="50%">is-a</textPath></text></g><g><path class="link" d="M714.2033258538085,765.8471149942116A0,0 0 0,1 623.2193294284632,811.8180246670706" style="stroke-width: 1.5; stroke: rgb(115, 194, 251); opacity: 1; fill: none; cursor: pointer;" marker-end="url(#marker-large)" id="237,238"></path><text style="fill: black; font-size: 8px; font-weight: normal;" dy="-1"><textPath href="#237,238" startOffset="50%">create</textPath></text></g><g><path class="link" d="M623.2193294284632,811.8180246670706A0,0 0 0,1 656.05935659668,712.5212501320932" style="stroke-width: 1.5; stroke: rgb(79, 151, 163); opacity: 1; fill: none; cursor: pointer;" marker-end="url(#marker-large)" id="238,239"></path><text style="fill: black; font-size: 8px; font-weight: normal;" dy="-1"><textPath href="#238,239" startOffset="50%">log</textPath></text></g><g class="node" cx="734.2837998954907" cy="865.4913836498902" id="220" transform="translate(734.2837998954907,865.4913836498902)"><path cursor="pointer" opacity="1" d="M6.90988298942671,0A6.90988298942671,6.90988298942671,0,1,1,-6.90988298942671,0A6.90988298942671,6.90988298942671,0,1,1,6.90988298942671,0" fill="#003152" stroke="none" stroke-width="1.5"></path><text dx="11" dy=".35em" fill="black" font-size="8" font-weight="normal" opacity="1">Actor</text></g><g class="node" cx="839.411358724017" cy="866.5305208525476" id="221" transform="translate(839.411358724017,866.5305208525476)"><path cursor="pointer" opacity="1" d="M6.90988298942671,0A6.90988298942671,6.90988298942671,0,1,1,-6.90988298942671,0A6.90988298942671,6.90988298942671,0,1,1,6.90988298942671,0" fill="#003152" stroke="none" stroke-width="1.5"></path><text dx="11" dy=".35em" fill="black" font-size="8" font-weight="normal" opacity="1">Applicant</text></g><g class="node" cx="762.8800839494585" cy="944.7434606863075" id="222" transform="translate(762.8800839494585,944.7434606863075)"><path cursor="pointer" opacity="1" d="M6.90988298942671,0A6.90988298942671,6.90988298942671,0,1,1,-6.90988298942671,0A6.90988298942671,6.90988298942671,0,1,1,6.90988298942671,0" fill="#003152" stroke="none" stroke-width="1.5"></path><text dx="11" dy=".35em" fill="black" font-size="8" font-weight="normal" opacity="1">Prospectiveapplicant</text></g><g class="node" cx="743.7230511772739" cy="1049.1244702901638" id="223" transform="translate(743.7230511772739,1049.1244702901638)"><path cursor="pointer" opacity="1" d="M6.90988298942671,0A6.90988298942671,6.90988298942671,0,1,1,-6.90988298942671,0A6.90988298942671,6.90988298942671,0,1,1,6.90988298942671,0" fill="#1034A6" stroke="none" stroke-width="1.5"></path><text dx="11" dy=".35em" fill="black" font-size="8" font-weight="normal" opacity="1">requirements</text></g><g class="node" cx="821.0193669916147" cy="1119.5426829989403" id="224" transform="translate(821.0193669916147,1119.5426829989403)"><path cursor="pointer" opacity="1" d="M6.90988298942671,0A6.90988298942671,6.90988298942671,0,1,1,-6.90988298942671,0A6.90988298942671,6.90988298942671,0,1,1,6.90988298942671,0" fill="#008081" stroke="none" stroke-width="1.5"></path><text dx="11" dy=".35em" fill="black" font-size="8" font-weight="normal" opacity="1">type</text></g><g class="node" cx="891.8437307088865" cy="771.5015824301416" id="225" transform="translate(891.8437307088865,771.5015824301416)"><path cursor="pointer" opacity="1" d="M6.90988298942671,0A6.90988298942671,6.90988298942671,0,1,1,-6.90988298942671,0A6.90988298942671,6.90988298942671,0,1,1,6.90988298942671,0" fill="#1034A6" stroke="none" stroke-width="1.5"></path><text dx="11" dy=".35em" fill="black" font-size="8" font-weight="normal" opacity="1">Assistance</text></g><g class="node" cx="973.4715069295154" cy="701.9379462406687" id="226" transform="translate(973.4715069295154,701.9379462406687)"><path cursor="pointer" opacity="1" d="M6.90988298942671,0A6.90988298942671,6.90988298942671,0,1,1,-6.90988298942671,0A6.90988298942671,6.90988298942671,0,1,1,6.90988298942671,0" fill="#008081" stroke="none" stroke-width="1.5"></path><text dx="11" dy=".35em" fill="black" font-size="8" font-weight="normal" opacity="1">response</text></g><g class="node" cx="820.0473063922742" cy="760.8113537010673" id="227" transform="translate(820.0473063922742,760.8113537010673)"><path cursor="pointer" opacity="1" d="M6.90988298942671,0A6.90988298942671,6.90988298942671,0,1,1,-6.90988298942671,0A6.90988298942671,6.90988298942671,0,1,1,6.90988298942671,0" fill="#1034A6" stroke="none" stroke-width="1.5"></path><text dx="11" dy=".35em" fill="black" font-size="8" font-weight="normal" opacity="1">Application</text></g><g class="node" cx="854.7850779567376" cy="660.265549804429" id="228" transform="translate(854.7850779567376,660.265549804429)"><path cursor="pointer" opacity="1" d="M6.90988298942671,0A6.90988298942671,6.90988298942671,0,1,1,-6.90988298942671,0A6.90988298942671,6.90988298942671,0,1,1,6.90988298942671,0" fill="#008081" stroke="none" stroke-width="1.5"></path><text dx="11" dy=".35em" fill="black" font-size="8" font-weight="normal" opacity="1">transaction</text></g><g class="node" cx="945.5388361026309" cy="890.5982393319874" id="229" transform="translate(945.5388361026309,890.5982393319874)"><path cursor="pointer" opacity="1" d="M6.90988298942671,0A6.90988298942671,6.90988298942671,0,1,1,-6.90988298942671,0A6.90988298942671,6.90988298942671,0,1,1,6.90988298942671,0" fill="#1034A6" stroke="none" stroke-width="1.5"></path><text dx="11" dy=".35em" fill="black" font-size="8" font-weight="normal" opacity="1">Documentation</text></g><g class="node" cx="1052.7274024102703" cy="905.2832722371548" id="230" transform="translate(1052.7274024102703,905.2832722371548)"><path cursor="pointer" opacity="1" d="M6.90988298942671,0A6.90988298942671,6.90988298942671,0,1,1,-6.90988298942671,0A6.90988298942671,6.90988298942671,0,1,1,6.90988298942671,0" fill="#008081" stroke="none" stroke-width="1.5"></path><text dx="11" dy=".35em" fill="black" font-size="8" font-weight="normal" opacity="1">requirements</text></g><g class="node" cx="837.5940365686062" cy="972.9326178510104" id="231" transform="translate(837.5940365686062,972.9326178510104)"><path cursor="pointer" opacity="1" d="M6.90988298942671,0A6.90988298942671,6.90988298942671,0,1,1,-6.90988298942671,0A6.90988298942671,6.90988298942671,0,1,1,6.90988298942671,0" fill="#1034A6" stroke="none" stroke-width="1.5"></path><text dx="11" dy=".35em" fill="black" font-size="8" font-weight="normal" opacity="1">Fee</text></g><g class="node" cx="905.7773266446873" cy="1054.8328084170137" id="232" transform="translate(905.7773266446873,1054.8328084170137)"><path cursor="pointer" opacity="1" d="M6.90988298942671,0A6.90988298942671,6.90988298942671,0,1,1,-6.90988298942671,0A6.90988298942671,6.90988298942671,0,1,1,6.90988298942671,0" fill="#008081" stroke="none" stroke-width="1.5"></path><text dx="11" dy=".35em" fill="black" font-size="8" font-weight="normal" opacity="1">charge</text></g><g class="node" cx="910.4745895344026" cy="948.0970906749131" id="233" transform="translate(910.4745895344026,948.0970906749131)"><path cursor="pointer" opacity="1" d="M6.90988298942671,0A6.90988298942671,6.90988298942671,0,1,1,-6.90988298942671,0A6.90988298942671,6.90988298942671,0,1,1,6.90988298942671,0" fill="#1034A6" stroke="none" stroke-width="1.5"></path><text dx="11" dy=".35em" fill="black" font-size="8" font-weight="normal" opacity="1">Status</text></g><g class="node" cx="1004.3701776492605" cy="1001.6426505504352" id="234" transform="translate(1004.3701776492605,1001.6426505504352)"><path cursor="pointer" opacity="1" d="M6.90988298942671,0A6.90988298942671,6.90988298942671,0,1,1,-6.90988298942671,0A6.90988298942671,6.90988298942671,0,1,1,6.90988298942671,0" fill="#008081" stroke="none" stroke-width="1.5"></path><text dx="11" dy=".35em" fill="black" font-size="8" font-weight="normal" opacity="1">service</text></g><g class="node" cx="939.071797943482" cy="823.1869950053341" id="235" transform="translate(939.071797943482,823.1869950053341)"><path cursor="pointer" opacity="1" d="M6.90988298942671,0A6.90988298942671,6.90988298942671,0,1,1,-6.90988298942671,0A6.90988298942671,6.90988298942671,0,1,1,6.90988298942671,0" fill="#1034A6" stroke="none" stroke-width="1.5"></path><text dx="11" dy=".35em" fill="black" font-size="8" font-weight="normal" opacity="1">Application</text></g><g class="node" cx="1042.102498726273" cy="790.4537442522326" id="236" transform="translate(1042.102498726273,790.4537442522326)"><path cursor="pointer" opacity="1" d="M6.90988298942671,0A6.90988298942671,6.90988298942671,0,1,1,-6.90988298942671,0A6.90988298942671,6.90988298942671,0,1,1,6.90988298942671,0" fill="#008081" stroke="none" stroke-width="1.5"></path><text dx="11" dy=".35em" fill="black" font-size="8" font-weight="normal" opacity="1">information</text></g><g class="node" cx="714.2033258538085" cy="765.8471149942116" id="237" transform="translate(714.2033258538085,765.8471149942116)"><path cursor="pointer" opacity="1" d="M6.90988298942671,0A6.90988298942671,6.90988298942671,0,1,1,-6.90988298942671,0A6.90988298942671,6.90988298942671,0,1,1,6.90988298942671,0" fill="#003152" stroke="none" stroke-width="1.5"></path><text dx="11" dy=".35em" fill="black" font-size="8" font-weight="normal" opacity="1">Customer</text></g><g class="node" cx="623.2193294284632" cy="811.8180246670706" id="238" transform="translate(623.2193294284632,811.8180246670706)"><path cursor="pointer" opacity="1" d="M6.90988298942671,0A6.90988298942671,6.90988298942671,0,1,1,-6.90988298942671,0A6.90988298942671,6.90988298942671,0,1,1,6.90988298942671,0" fill="#1034A6" stroke="none" stroke-width="1.5"></path><text dx="11" dy=".35em" fill="black" font-size="8" font-weight="normal" opacity="1">Account</text></g><g class="node" cx="656.05935659668" cy="712.5212501320932" id="239" transform="translate(656.05935659668,712.5212501320932)"><path cursor="pointer" opacity="1" d="M6.90988298942671,0A6.90988298942671,6.90988298942671,0,1,1,-6.90988298942671,0A6.90988298942671,6.90988298942671,0,1,1,6.90988298942671,0" fill="#008081" stroke="none" stroke-width="1.5"></path><text dx="11" dy=".35em" fill="black" font-size="8" font-weight="normal" opacity="1">transactions</text></g></g></svg>
