<svg height="1200" width="1500" transform="translate(174, 0)"><g><g class="node" transform="translate(0, 571.4285714285714)"><g><rect height="55" width="136" y="2" x="2" stroke-width="1.5" stroke="#261D3D" fill="#e5def9"></rect><rect class="node-cursor" rx="15" id="svg_3" height="55" width="27" y="2" x="128" fill-opacity="null" stroke-opacity="null" stroke-width="1.5" stroke="#261D3D" fill="#261D3D"></rect><path class="node-cursor" d="m136.068832,43.620384l-2.59021,-2.617714l-2.588882,-2.618797l2.59024,-2.620651l2.588852,-2.618637l0,2.912262c0.634644,0 1.371964,0 1.619019,0c1.177826,0.058113 2.631546,-1.566666 4.178146,-3.661186c0.576538,-0.734396 1.158203,-1.542364 1.774643,-2.271933c-0.61644,-0.730408 -1.19722,-1.537476 -1.774643,-2.271835c-1.5466,-2.091599 -3.00032,-3.719345 -4.176544,-3.660141l-1.620621,-0.000969l0,2.916115l-2.588852,-2.61969l-2.59024,-2.621704l2.59024,-2.624466l2.588852,-2.620651l0,2.914246l1.619736,0c2.405655,0.059059 4.203537,2.563507 5.776794,4.598969c1.561798,2.147858 2.965622,3.764832 3.779846,3.660172l4.644531,0l0,4.652327l-4.646057,0c-0.813507,-0.105713 -2.218048,1.512314 -3.779678,3.66011c-1.57254,2.03653 -3.369781,4.538857 -5.776154,4.599007l-1.619019,0l0,2.915169l0,0z" stroke-opacity="null" stroke-width="1" stroke="#fff" fill="#261D3D"></path><text transform="matrix(0.970731, 0, 0, 1, 0.321963, 0)" text-anchor="start" font-family="Helvetica, Arial, sans-serif" font-size="15px" id="svg_9" y="28" x="11" fill-opacity="null" stroke-opacity="null" stroke-width="0" stroke="#000" fill="#000000">Actor<title>Actor</title></text></g></g><g class="node" transform="translate(384, 57.142857142857146)"><g><rect height="55" width="136" y="2" x="2" stroke-width="1.5" stroke="#261D3D" fill="#e5def9"></rect><rect class="node-cursor" rx="15" id="svg_3" height="55" width="27" y="2" x="128" fill-opacity="null" stroke-opacity="null" stroke-width="1.5" stroke="#261D3D" fill="#261D3D"></rect><path class="node-cursor" d="m136.068832,43.620384l-2.59021,-2.617714l-2.588882,-2.618797l2.59024,-2.620651l2.588852,-2.618637l0,2.912262c0.634644,0 1.371964,0 1.619019,0c1.177826,0.058113 2.631546,-1.566666 4.178146,-3.661186c0.576538,-0.734396 1.158203,-1.542364 1.774643,-2.271933c-0.61644,-0.730408 -1.19722,-1.537476 -1.774643,-2.271835c-1.5466,-2.091599 -3.00032,-3.719345 -4.176544,-3.660141l-1.620621,-0.000969l0,2.916115l-2.588852,-2.61969l-2.59024,-2.621704l2.59024,-2.624466l2.588852,-2.620651l0,2.914246l1.619736,0c2.405655,0.059059 4.203537,2.563507 5.776794,4.598969c1.561798,2.147858 2.965622,3.764832 3.779846,3.660172l4.644531,0l0,4.652327l-4.646057,0c-0.813507,-0.105713 -2.218048,1.512314 -3.779678,3.66011c-1.57254,2.03653 -3.369781,4.538857 -5.776154,4.599007l-1.619019,0l0,2.915169l0,0z" stroke-opacity="null" stroke-width="1" stroke="#fff" fill="#261D3D"></path><rect class="node-cursor" height="13" width="82.230823" y="43.461531" x="2.615396" stroke-opacity="null" stroke-width="1" stroke="#261D3D" fill="#261D3D"></rect><text class="node-cursor" text-anchor="start" font-family="Helvetica, Arial, sans-serif" font-size="10" id="svg_7" y="53.076916" x="27.615463" fill-opacity="null" stroke-opacity="null" stroke-width="0" stroke="#000" fill="#fff">Stories</text><text transform="matrix(0.970731, 0, 0, 1, 0.321963, 0)" text-anchor="start" font-family="Helvetica, Arial, sans-serif" font-size="15px" id="svg_9" y="28" x="11" fill-opacity="null" stroke-opacity="null" stroke-width="0" stroke="#000" fill="#000000">Public User<title>Public User</title></text></g></g><g class="node" transform="translate(768, 57.142857142857146)"><g><rect height="55" width="136" y="2" x="2" stroke-width="1.5" stroke="#261D3D" fill="#e5def9"></rect><rect class="node-cursor" rx="15" id="svg_3" height="55" width="27" y="2" x="128" fill-opacity="null" stroke-opacity="null" stroke-width="1.5" stroke="#261D3D" fill="#261D3D"></rect><path class="node-cursor" d="m136.068832,43.620384l-2.59021,-2.617714l-2.588882,-2.618797l2.59024,-2.620651l2.588852,-2.618637l0,2.912262c0.634644,0 1.371964,0 1.619019,0c1.177826,0.058113 2.631546,-1.566666 4.178146,-3.661186c0.576538,-0.734396 1.158203,-1.542364 1.774643,-2.271933c-0.61644,-0.730408 -1.19722,-1.537476 -1.774643,-2.271835c-1.5466,-2.091599 -3.00032,-3.719345 -4.176544,-3.660141l-1.620621,-0.000969l0,2.916115l-2.588852,-2.61969l-2.59024,-2.621704l2.59024,-2.624466l2.588852,-2.620651l0,2.914246l1.619736,0c2.405655,0.059059 4.203537,2.563507 5.776794,4.598969c1.561798,2.147858 2.965622,3.764832 3.779846,3.660172l4.644531,0l0,4.652327l-4.646057,0c-0.813507,-0.105713 -2.218048,1.512314 -3.779678,3.66011c-1.57254,2.03653 -3.369781,4.538857 -5.776154,4.599007l-1.619019,0l0,2.915169l0,0z" stroke-opacity="null" stroke-width="1" stroke="#fff" fill="#261D3D"></path><rect class="node-cursor" height="13" width="82.230823" y="43.461531" x="2.615396" stroke-opacity="null" stroke-width="1" stroke="#261D3D" fill="#261D3D"></rect><text class="node-cursor" text-anchor="start" font-family="Helvetica, Arial, sans-serif" font-size="10" id="svg_7" y="53.076916" x="27.615463" fill-opacity="null" stroke-opacity="null" stroke-width="0" stroke="#000" fill="#fff">Stories</text><text transform="matrix(0.970731, 0, 0, 1, 0.321963, 0)" text-anchor="start" font-family="Helvetica, Arial, sans-serif" font-size="15px" id="svg_9" y="28" x="11" fill-opacity="null" stroke-opacity="null" stroke-width="0" stroke="#000" fill="#000000">search<title>search</title></text></g></g><g class="node" transform="translate(1152, 57.142857142857146)"><g><rect height="55" width="136" y="2" x="2" stroke-width="1.5" stroke="#261D3D" fill="#e5def9"></rect><rect class="node-cursor" height="13" width="136" y="43.461531" x="2.615396" stroke-opacity="null" stroke-width="1" stroke="#261D3D" fill="#261D3D"></rect><text class="node-cursor" text-anchor="start" font-family="Helvetica, Arial, sans-serif" font-size="10" id="svg_7" y="53.076916" x="27.615463" fill-opacity="null" stroke-opacity="null" stroke-width="0" stroke="#000" fill="#fff">Stories</text><text transform="matrix(0.970731, 0, 0, 1, 0.321963, 0)" text-anchor="start" font-family="Helvetica, Arial, sans-serif" font-size="15px" id="svg_9" y="28" x="11" fill-opacity="null" stroke-opacity="null" stroke-width="0" stroke="#000" fill="#000000">Information<title>Information</title></text></g></g><g class="node" transform="translate(384, 171.42857142857144)"><g><rect height="55" width="136" y="2" x="2" stroke-width="1.5" stroke="#261D3D" fill="#e5def9"></rect><rect class="node-cursor" rx="15" id="svg_3" height="55" width="27" y="2" x="128" fill-opacity="null" stroke-opacity="null" stroke-width="1.5" stroke="#261D3D" fill="#261D3D"></rect><path class="node-cursor" d="m136.068832,43.620384l-2.59021,-2.617714l-2.588882,-2.618797l2.59024,-2.620651l2.588852,-2.618637l0,2.912262c0.634644,0 1.371964,0 1.619019,0c1.177826,0.058113 2.631546,-1.566666 4.178146,-3.661186c0.576538,-0.734396 1.158203,-1.542364 1.774643,-2.271933c-0.61644,-0.730408 -1.19722,-1.537476 -1.774643,-2.271835c-1.5466,-2.091599 -3.00032,-3.719345 -4.176544,-3.660141l-1.620621,-0.000969l0,2.916115l-2.588852,-2.61969l-2.59024,-2.621704l2.59024,-2.624466l2.588852,-2.620651l0,2.914246l1.619736,0c2.405655,0.059059 4.203537,2.563507 5.776794,4.598969c1.561798,2.147858 2.965622,3.764832 3.779846,3.660172l4.644531,0l0,4.652327l-4.646057,0c-0.813507,-0.105713 -2.218048,1.512314 -3.779678,3.66011c-1.57254,2.03653 -3.369781,4.538857 -5.776154,4.599007l-1.619019,0l0,2.915169l0,0z" stroke-opacity="null" stroke-width="1" stroke="#fff" fill="#261D3D"></path><rect class="node-cursor" height="13" width="82.230823" y="43.461531" x="2.615396" stroke-opacity="null" stroke-width="1" stroke="#261D3D" fill="#261D3D"></rect><text class="node-cursor" text-anchor="start" font-family="Helvetica, Arial, sans-serif" font-size="10" id="svg_7" y="53.076916" x="27.615463" fill-opacity="null" stroke-opacity="null" stroke-width="0" stroke="#000" fill="#fff">Stories</text><text transform="matrix(0.970731, 0, 0, 1, 0.321963, 0)" text-anchor="start" font-family="Helvetica, Arial, sans-serif" font-size="12px" id="svg_9" y="28" x="11" fill-opacity="null" stroke-opacity="null" stroke-width="0" stroke="#000" fill="#000000">Prospective Applicant<title>Prospective Applicant</title></text></g></g><g class="node" transform="translate(768, 171.42857142857144)"><g><rect height="55" width="136" y="2" x="2" stroke-width="1.5" stroke="#261D3D" fill="#e5def9"></rect><rect class="node-cursor" rx="15" id="svg_3" height="55" width="27" y="2" x="128" fill-opacity="null" stroke-opacity="null" stroke-width="1.5" stroke="#261D3D" fill="#261D3D"></rect><path class="node-cursor" d="m136.068832,43.620384l-2.59021,-2.617714l-2.588882,-2.618797l2.59024,-2.620651l2.588852,-2.618637l0,2.912262c0.634644,0 1.371964,0 1.619019,0c1.177826,0.058113 2.631546,-1.566666 4.178146,-3.661186c0.576538,-0.734396 1.158203,-1.542364 1.774643,-2.271933c-0.61644,-0.730408 -1.19722,-1.537476 -1.774643,-2.271835c-1.5466,-2.091599 -3.00032,-3.719345 -4.176544,-3.660141l-1.620621,-0.000969l0,2.916115l-2.588852,-2.61969l-2.59024,-2.621704l2.59024,-2.624466l2.588852,-2.620651l0,2.914246l1.619736,0c2.405655,0.059059 4.203537,2.563507 5.776794,4.598969c1.561798,2.147858 2.965622,3.764832 3.779846,3.660172l4.644531,0l0,4.652327l-4.646057,0c-0.813507,-0.105713 -2.218048,1.512314 -3.779678,3.66011c-1.57254,2.03653 -3.369781,4.538857 -5.776154,4.599007l-1.619019,0l0,2.915169l0,0z" stroke-opacity="null" stroke-width="1" stroke="#fff" fill="#261D3D"></path><rect class="node-cursor" height="13" width="82.230823" y="43.461531" x="2.615396" stroke-opacity="null" stroke-width="1" stroke="#261D3D" fill="#261D3D"></rect><text class="node-cursor" text-anchor="start" font-family="Helvetica, Arial, sans-serif" font-size="10" id="svg_7" y="53.076916" x="27.615463" fill-opacity="null" stroke-opacity="null" stroke-width="0" stroke="#000" fill="#fff">Stories</text><text transform="matrix(0.970731, 0, 0, 1, 0.321963, 0)" text-anchor="start" font-family="Helvetica, Arial, sans-serif" font-size="15px" id="svg_9" y="28" x="11" fill-opacity="null" stroke-opacity="null" stroke-width="0" stroke="#000" fill="#000000">research<title>research</title></text></g></g><g class="node" transform="translate(1152, 171.42857142857144)"><g><rect height="55" width="136" y="2" x="2" stroke-width="1.5" stroke="#261D3D" fill="#e5def9"></rect><rect class="node-cursor" height="13" width="136" y="43.461531" x="2.615396" stroke-opacity="null" stroke-width="1" stroke="#261D3D" fill="#261D3D"></rect><text class="node-cursor" text-anchor="start" font-family="Helvetica, Arial, sans-serif" font-size="10" id="svg_7" y="53.076916" x="27.615463" fill-opacity="null" stroke-opacity="null" stroke-width="0" stroke="#000" fill="#fff">Stories</text><text transform="matrix(0.970731, 0, 0, 1, 0.321963, 0)" text-anchor="start" font-family="Helvetica, Arial, sans-serif" font-size="15px" id="svg_9" y="28" x="11" fill-opacity="null" stroke-opacity="null" stroke-width="0" stroke="#000" fill="#000000">requirements<title>requirements</title></text></g></g><g class="node" transform="translate(384, 542.8571428571429)"><g><rect height="55" width="136" y="2" x="2" stroke-width="1.5" stroke="#261D3D" fill="#e5def9"></rect><rect class="node-cursor" rx="15" id="svg_3" height="55" width="27" y="2" x="128" fill-opacity="null" stroke-opacity="null" stroke-width="1.5" stroke="#261D3D" fill="#261D3D"></rect><path class="node-cursor" d="m136.068832,43.620384l-2.59021,-2.617714l-2.588882,-2.618797l2.59024,-2.620651l2.588852,-2.618637l0,2.912262c0.634644,0 1.371964,0 1.619019,0c1.177826,0.058113 2.631546,-1.566666 4.178146,-3.661186c0.576538,-0.734396 1.158203,-1.542364 1.774643,-2.271933c-0.61644,-0.730408 -1.19722,-1.537476 -1.774643,-2.271835c-1.5466,-2.091599 -3.00032,-3.719345 -4.176544,-3.660141l-1.620621,-0.000969l0,2.916115l-2.588852,-2.61969l-2.59024,-2.621704l2.59024,-2.624466l2.588852,-2.620651l0,2.914246l1.619736,0c2.405655,0.059059 4.203537,2.563507 5.776794,4.598969c1.561798,2.147858 2.965622,3.764832 3.779846,3.660172l4.644531,0l0,4.652327l-4.646057,0c-0.813507,-0.105713 -2.218048,1.512314 -3.779678,3.66011c-1.57254,2.03653 -3.369781,4.538857 -5.776154,4.599007l-1.619019,0l0,2.915169l0,0z" stroke-opacity="null" stroke-width="1" stroke="#fff" fill="#261D3D"></path><rect class="node-cursor" height="13" width="82.230823" y="43.461531" x="2.615396" stroke-opacity="null" stroke-width="1" stroke="#261D3D" fill="#261D3D"></rect><text class="node-cursor" text-anchor="start" font-family="Helvetica, Arial, sans-serif" font-size="10" id="svg_7" y="53.076916" x="27.615463" fill-opacity="null" stroke-opacity="null" stroke-width="0" stroke="#000" fill="#fff">Stories</text><text transform="matrix(0.970731, 0, 0, 1, 0.321963, 0)" text-anchor="start" font-family="Helvetica, Arial, sans-serif" font-size="15px" id="svg_9" y="28" x="11" fill-opacity="null" stroke-opacity="null" stroke-width="0" stroke="#000" fill="#000000">Applicant<title>Applicant</title></text></g></g><g class="node" transform="translate(768, 285.7142857142857)"><g><rect height="55" width="136" y="2" x="2" stroke-width="1.5" stroke="#261D3D" fill="#e5def9"></rect><rect class="node-cursor" rx="15" id="svg_3" height="55" width="27" y="2" x="128" fill-opacity="null" stroke-opacity="null" stroke-width="1.5" stroke="#261D3D" fill="#261D3D"></rect><path class="node-cursor" d="m136.068832,43.620384l-2.59021,-2.617714l-2.588882,-2.618797l2.59024,-2.620651l2.588852,-2.618637l0,2.912262c0.634644,0 1.371964,0 1.619019,0c1.177826,0.058113 2.631546,-1.566666 4.178146,-3.661186c0.576538,-0.734396 1.158203,-1.542364 1.774643,-2.271933c-0.61644,-0.730408 -1.19722,-1.537476 -1.774643,-2.271835c-1.5466,-2.091599 -3.00032,-3.719345 -4.176544,-3.660141l-1.620621,-0.000969l0,2.916115l-2.588852,-2.61969l-2.59024,-2.621704l2.59024,-2.624466l2.588852,-2.620651l0,2.914246l1.619736,0c2.405655,0.059059 4.203537,2.563507 5.776794,4.598969c1.561798,2.147858 2.965622,3.764832 3.779846,3.660172l4.644531,0l0,4.652327l-4.646057,0c-0.813507,-0.105713 -2.218048,1.512314 -3.779678,3.66011c-1.57254,2.03653 -3.369781,4.538857 -5.776154,4.599007l-1.619019,0l0,2.915169l0,0z" stroke-opacity="null" stroke-width="1" stroke="#fff" fill="#261D3D"></path><rect class="node-cursor" height="13" width="82.230823" y="43.461531" x="2.615396" stroke-opacity="null" stroke-width="1" stroke="#261D3D" fill="#261D3D"></rect><text class="node-cursor" text-anchor="start" font-family="Helvetica, Arial, sans-serif" font-size="10" id="svg_7" y="53.076916" x="27.615463" fill-opacity="null" stroke-opacity="null" stroke-width="0" stroke="#000" fill="#fff">Stories</text><text transform="matrix(0.970731, 0, 0, 1, 0.321963, 0)" text-anchor="start" font-family="Helvetica, Arial, sans-serif" font-size="15px" id="svg_9" y="28" x="11" fill-opacity="null" stroke-opacity="null" stroke-width="0" stroke="#000" fill="#000000">request<title>request</title></text></g></g><g class="node" transform="translate(1152, 285.7142857142857)"><g><rect height="55" width="136" y="2" x="2" stroke-width="1.5" stroke="#261D3D" fill="#e5def9"></rect><rect class="node-cursor" height="13" width="136" y="43.461531" x="2.615396" stroke-opacity="null" stroke-width="1" stroke="#261D3D" fill="#261D3D"></rect><text class="node-cursor" text-anchor="start" font-family="Helvetica, Arial, sans-serif" font-size="10" id="svg_7" y="53.076916" x="27.615463" fill-opacity="null" stroke-opacity="null" stroke-width="0" stroke="#000" fill="#fff">Stories</text><text transform="matrix(0.970731, 0, 0, 1, 0.321963, 0)" text-anchor="start" font-family="Helvetica, Arial, sans-serif" font-size="15px" id="svg_9" y="28" x="11" fill-opacity="null" stroke-opacity="null" stroke-width="0" stroke="#000" fill="#000000">Assistance<title>Assistance</title></text></g></g><g class="node" transform="translate(768, 428.5714285714286)"><g><rect height="55" width="136" y="2" x="2" stroke-width="1.5" stroke="#261D3D" fill="#e5def9"></rect><rect class="node-cursor" rx="15" id="svg_3" height="55" width="27" y="2" x="128" fill-opacity="null" stroke-opacity="null" stroke-width="1.5" stroke="#261D3D" fill="#261D3D"></rect><path class="node-cursor" d="m136.068832,43.620384l-2.59021,-2.617714l-2.588882,-2.618797l2.59024,-2.620651l2.588852,-2.618637l0,2.912262c0.634644,0 1.371964,0 1.619019,0c1.177826,0.058113 2.631546,-1.566666 4.178146,-3.661186c0.576538,-0.734396 1.158203,-1.542364 1.774643,-2.271933c-0.61644,-0.730408 -1.19722,-1.537476 -1.774643,-2.271835c-1.5466,-2.091599 -3.00032,-3.719345 -4.176544,-3.660141l-1.620621,-0.000969l0,2.916115l-2.588852,-2.61969l-2.59024,-2.621704l2.59024,-2.624466l2.588852,-2.620651l0,2.914246l1.619736,0c2.405655,0.059059 4.203537,2.563507 5.776794,4.598969c1.561798,2.147858 2.965622,3.764832 3.779846,3.660172l4.644531,0l0,4.652327l-4.646057,0c-0.813507,-0.105713 -2.218048,1.512314 -3.779678,3.66011c-1.57254,2.03653 -3.369781,4.538857 -5.776154,4.599007l-1.619019,0l0,2.915169l0,0z" stroke-opacity="null" stroke-width="1" stroke="#fff" fill="#261D3D"></path><rect class="node-cursor" height="13" width="82.230823" y="43.461531" x="2.615396" stroke-opacity="null" stroke-width="1" stroke="#261D3D" fill="#261D3D"></rect><text class="node-cursor" text-anchor="start" font-family="Helvetica, Arial, sans-serif" font-size="10" id="svg_7" y="53.076916" x="27.615463" fill-opacity="null" stroke-opacity="null" stroke-width="0" stroke="#000" fill="#fff">Stories</text><text transform="matrix(0.970731, 0, 0, 1, 0.321963, 0)" text-anchor="start" font-family="Helvetica, Arial, sans-serif" font-size="15px" id="svg_9" y="28" x="11" fill-opacity="null" stroke-opacity="null" stroke-width="0" stroke="#000" fill="#000000">submit<title>submit</title></text></g></g><g class="node" transform="translate(1152, 400)"><g><rect height="55" width="136" y="2" x="2" stroke-width="1.5" stroke="#261D3D" fill="#e5def9"></rect><rect class="node-cursor" height="13" width="136" y="43.461531" x="2.615396" stroke-opacity="null" stroke-width="1" stroke="#261D3D" fill="#261D3D"></rect><text class="node-cursor" text-anchor="start" font-family="Helvetica, Arial, sans-serif" font-size="10" id="svg_7" y="53.076916" x="27.615463" fill-opacity="null" stroke-opacity="null" stroke-width="0" stroke="#000" fill="#fff">Stories</text><text transform="matrix(0.970731, 0, 0, 1, 0.321963, 0)" text-anchor="start" font-family="Helvetica, Arial, sans-serif" font-size="15px" id="svg_9" y="28" x="11" fill-opacity="null" stroke-opacity="null" stroke-width="0" stroke="#000" fill="#000000">Application<title>Application</title></text></g></g><g class="node" transform="translate(1152, 457.14285714285717)"><g><rect height="55" width="136" y="2" x="2" stroke-width="1.5" stroke="#261D3D" fill="#e5def9"></rect><rect class="node-cursor" height="13" width="136" y="43.461531" x="2.615396" stroke-opacity="null" stroke-width="1" stroke="#261D3D" fill="#261D3D"></rect><text class="node-cursor" text-anchor="start" font-family="Helvetica, Arial, sans-serif" font-size="10" id="svg_7" y="53.076916" x="27.615463" fill-opacity="null" stroke-opacity="null" stroke-width="0" stroke="#000" fill="#fff">Stories</text><text transform="matrix(0.970731, 0, 0, 1, 0.321963, 0)" text-anchor="start" font-family="Helvetica, Arial, sans-serif" font-size="15px" id="svg_9" y="28" x="11" fill-opacity="null" stroke-opacity="null" stroke-width="0" stroke="#000" fill="#000000">Documentation<title>Documentation</title></text></g></g><g class="node" transform="translate(768, 571.4285714285714)"><g><rect height="55" width="136" y="2" x="2" stroke-width="1.5" stroke="#261D3D" fill="#e5def9"></rect><rect class="node-cursor" rx="15" id="svg_3" height="55" width="27" y="2" x="128" fill-opacity="null" stroke-opacity="null" stroke-width="1.5" stroke="#261D3D" fill="#261D3D"></rect><path class="node-cursor" d="m136.068832,43.620384l-2.59021,-2.617714l-2.588882,-2.618797l2.59024,-2.620651l2.588852,-2.618637l0,2.912262c0.634644,0 1.371964,0 1.619019,0c1.177826,0.058113 2.631546,-1.566666 4.178146,-3.661186c0.576538,-0.734396 1.158203,-1.542364 1.774643,-2.271933c-0.61644,-0.730408 -1.19722,-1.537476 -1.774643,-2.271835c-1.5466,-2.091599 -3.00032,-3.719345 -4.176544,-3.660141l-1.620621,-0.000969l0,2.916115l-2.588852,-2.61969l-2.59024,-2.621704l2.59024,-2.624466l2.588852,-2.620651l0,2.914246l1.619736,0c2.405655,0.059059 4.203537,2.563507 5.776794,4.598969c1.561798,2.147858 2.965622,3.764832 3.779846,3.660172l4.644531,0l0,4.652327l-4.646057,0c-0.813507,-0.105713 -2.218048,1.512314 -3.779678,3.66011c-1.57254,2.03653 -3.369781,4.538857 -5.776154,4.599007l-1.619019,0l0,2.915169l0,0z" stroke-opacity="null" stroke-width="1" stroke="#fff" fill="#261D3D"></path><rect class="node-cursor" height="13" width="82.230823" y="43.461531" x="2.615396" stroke-opacity="null" stroke-width="1" stroke="#261D3D" fill="#261D3D"></rect><text class="node-cursor" text-anchor="start" font-family="Helvetica, Arial, sans-serif" font-size="10" id="svg_7" y="53.076916" x="27.615463" fill-opacity="null" stroke-opacity="null" stroke-width="0" stroke="#000" fill="#fff">Stories</text><text transform="matrix(0.970731, 0, 0, 1, 0.321963, 0)" text-anchor="start" font-family="Helvetica, Arial, sans-serif" font-size="15px" id="svg_9" y="28" x="11" fill-opacity="null" stroke-opacity="null" stroke-width="0" stroke="#000" fill="#000000">pay<title>pay</title></text></g></g><g class="node" transform="translate(1152, 571.4285714285714)"><g><rect height="55" width="136" y="2" x="2" stroke-width="1.5" stroke="#261D3D" fill="#e5def9"></rect><rect class="node-cursor" height="13" width="136" y="43.461531" x="2.615396" stroke-opacity="null" stroke-width="1" stroke="#261D3D" fill="#261D3D"></rect><text class="node-cursor" text-anchor="start" font-family="Helvetica, Arial, sans-serif" font-size="10" id="svg_7" y="53.076916" x="27.615463" fill-opacity="null" stroke-opacity="null" stroke-width="0" stroke="#000" fill="#fff">Stories</text><text transform="matrix(0.970731, 0, 0, 1, 0.321963, 0)" text-anchor="start" font-family="Helvetica, Arial, sans-serif" font-size="15px" id="svg_9" y="28" x="11" fill-opacity="null" stroke-opacity="null" stroke-width="0" stroke="#000" fill="#000000">Fee<title>Fee</title></text></g></g><g class="node" transform="translate(768, 685.7142857142858)"><g><rect height="55" width="136" y="2" x="2" stroke-width="1.5" stroke="#261D3D" fill="#e5def9"></rect><rect class="node-cursor" rx="15" id="svg_3" height="55" width="27" y="2" x="128" fill-opacity="null" stroke-opacity="null" stroke-width="1.5" stroke="#261D3D" fill="#261D3D"></rect><path class="node-cursor" d="m136.068832,43.620384l-2.59021,-2.617714l-2.588882,-2.618797l2.59024,-2.620651l2.588852,-2.618637l0,2.912262c0.634644,0 1.371964,0 1.619019,0c1.177826,0.058113 2.631546,-1.566666 4.178146,-3.661186c0.576538,-0.734396 1.158203,-1.542364 1.774643,-2.271933c-0.61644,-0.730408 -1.19722,-1.537476 -1.774643,-2.271835c-1.5466,-2.091599 -3.00032,-3.719345 -4.176544,-3.660141l-1.620621,-0.000969l0,2.916115l-2.588852,-2.61969l-2.59024,-2.621704l2.59024,-2.624466l2.588852,-2.620651l0,2.914246l1.619736,0c2.405655,0.059059 4.203537,2.563507 5.776794,4.598969c1.561798,2.147858 2.965622,3.764832 3.779846,3.660172l4.644531,0l0,4.652327l-4.646057,0c-0.813507,-0.105713 -2.218048,1.512314 -3.779678,3.66011c-1.57254,2.03653 -3.369781,4.538857 -5.776154,4.599007l-1.619019,0l0,2.915169l0,0z" stroke-opacity="null" stroke-width="1" stroke="#fff" fill="#261D3D"></path><rect class="node-cursor" height="13" width="82.230823" y="43.461531" x="2.615396" stroke-opacity="null" stroke-width="1" stroke="#261D3D" fill="#261D3D"></rect><text class="node-cursor" text-anchor="start" font-family="Helvetica, Arial, sans-serif" font-size="10" id="svg_7" y="53.076916" x="27.615463" fill-opacity="null" stroke-opacity="null" stroke-width="0" stroke="#000" fill="#fff">Stories</text><text transform="matrix(0.970731, 0, 0, 1, 0.321963, 0)" text-anchor="start" font-family="Helvetica, Arial, sans-serif" font-size="15px" id="svg_9" y="28" x="11" fill-opacity="null" stroke-opacity="null" stroke-width="0" stroke="#000" fill="#000000">check<title>check</title></text></g></g><g class="node" transform="translate(1152, 685.7142857142858)"><g><rect height="55" width="136" y="2" x="2" stroke-width="1.5" stroke="#261D3D" fill="#e5def9"></rect><rect class="node-cursor" height="13" width="136" y="43.461531" x="2.615396" stroke-opacity="null" stroke-width="1" stroke="#261D3D" fill="#261D3D"></rect><text class="node-cursor" text-anchor="start" font-family="Helvetica, Arial, sans-serif" font-size="10" id="svg_7" y="53.076916" x="27.615463" fill-opacity="null" stroke-opacity="null" stroke-width="0" stroke="#000" fill="#fff">Stories</text><text transform="matrix(0.970731, 0, 0, 1, 0.321963, 0)" text-anchor="start" font-family="Helvetica, Arial, sans-serif" font-size="15px" id="svg_9" y="28" x="11" fill-opacity="null" stroke-opacity="null" stroke-width="0" stroke="#000" fill="#000000">Status<title>Status</title></text></g></g><g class="node" transform="translate(768, 800)"><g><rect height="55" width="136" y="2" x="2" stroke-width="1.5" stroke="#261D3D" fill="#e5def9"></rect><rect class="node-cursor" rx="15" id="svg_3" height="55" width="27" y="2" x="128" fill-opacity="null" stroke-opacity="null" stroke-width="1.5" stroke="#261D3D" fill="#261D3D"></rect><path class="node-cursor" d="m136.068832,43.620384l-2.59021,-2.617714l-2.588882,-2.618797l2.59024,-2.620651l2.588852,-2.618637l0,2.912262c0.634644,0 1.371964,0 1.619019,0c1.177826,0.058113 2.631546,-1.566666 4.178146,-3.661186c0.576538,-0.734396 1.158203,-1.542364 1.774643,-2.271933c-0.61644,-0.730408 -1.19722,-1.537476 -1.774643,-2.271835c-1.5466,-2.091599 -3.00032,-3.719345 -4.176544,-3.660141l-1.620621,-0.000969l0,2.916115l-2.588852,-2.61969l-2.59024,-2.621704l2.59024,-2.624466l2.588852,-2.620651l0,2.914246l1.619736,0c2.405655,0.059059 4.203537,2.563507 5.776794,4.598969c1.561798,2.147858 2.965622,3.764832 3.779846,3.660172l4.644531,0l0,4.652327l-4.646057,0c-0.813507,-0.105713 -2.218048,1.512314 -3.779678,3.66011c-1.57254,2.03653 -3.369781,4.538857 -5.776154,4.599007l-1.619019,0l0,2.915169l0,0z" stroke-opacity="null" stroke-width="1" stroke="#fff" fill="#261D3D"></path><rect class="node-cursor" height="13" width="82.230823" y="43.461531" x="2.615396" stroke-opacity="null" stroke-width="1" stroke="#261D3D" fill="#261D3D"></rect><text class="node-cursor" text-anchor="start" font-family="Helvetica, Arial, sans-serif" font-size="10" id="svg_7" y="53.076916" x="27.615463" fill-opacity="null" stroke-opacity="null" stroke-width="0" stroke="#000" fill="#fff">Stories</text><text transform="matrix(0.970731, 0, 0, 1, 0.321963, 0)" text-anchor="start" font-family="Helvetica, Arial, sans-serif" font-size="15px" id="svg_9" y="28" x="11" fill-opacity="null" stroke-opacity="null" stroke-width="0" stroke="#000" fill="#000000">modify<title>modify</title></text></g></g><g class="node" transform="translate(1152, 800)"><g><rect height="55" width="136" y="2" x="2" stroke-width="1.5" stroke="#261D3D" fill="#e5def9"></rect><rect class="node-cursor" height="13" width="136" y="43.461531" x="2.615396" stroke-opacity="null" stroke-width="1" stroke="#261D3D" fill="#261D3D"></rect><text class="node-cursor" text-anchor="start" font-family="Helvetica, Arial, sans-serif" font-size="10" id="svg_7" y="53.076916" x="27.615463" fill-opacity="null" stroke-opacity="null" stroke-width="0" stroke="#000" fill="#fff">Stories</text><text transform="matrix(0.970731, 0, 0, 1, 0.321963, 0)" text-anchor="start" font-family="Helvetica, Arial, sans-serif" font-size="15px" id="svg_9" y="28" x="11" fill-opacity="null" stroke-opacity="null" stroke-width="0" stroke="#000" fill="#000000">Application<title>Application</title></text></g></g><g class="node" transform="translate(384, 914.2857142857143)"><g><rect height="55" width="136" y="2" x="2" stroke-width="1.5" stroke="#261D3D" fill="#e5def9"></rect><rect class="node-cursor" rx="15" id="svg_3" height="55" width="27" y="2" x="128" fill-opacity="null" stroke-opacity="null" stroke-width="1.5" stroke="#261D3D" fill="#261D3D"></rect><path class="node-cursor" d="m136.068832,43.620384l-2.59021,-2.617714l-2.588882,-2.618797l2.59024,-2.620651l2.588852,-2.618637l0,2.912262c0.634644,0 1.371964,0 1.619019,0c1.177826,0.058113 2.631546,-1.566666 4.178146,-3.661186c0.576538,-0.734396 1.158203,-1.542364 1.774643,-2.271933c-0.61644,-0.730408 -1.19722,-1.537476 -1.774643,-2.271835c-1.5466,-2.091599 -3.00032,-3.719345 -4.176544,-3.660141l-1.620621,-0.000969l0,2.916115l-2.588852,-2.61969l-2.59024,-2.621704l2.59024,-2.624466l2.588852,-2.620651l0,2.914246l1.619736,0c2.405655,0.059059 4.203537,2.563507 5.776794,4.598969c1.561798,2.147858 2.965622,3.764832 3.779846,3.660172l4.644531,0l0,4.652327l-4.646057,0c-0.813507,-0.105713 -2.218048,1.512314 -3.779678,3.66011c-1.57254,2.03653 -3.369781,4.538857 -5.776154,4.599007l-1.619019,0l0,2.915169l0,0z" stroke-opacity="null" stroke-width="1" stroke="#fff" fill="#261D3D"></path><rect class="node-cursor" height="13" width="82.230823" y="43.461531" x="2.615396" stroke-opacity="null" stroke-width="1" stroke="#261D3D" fill="#261D3D"></rect><text class="node-cursor" text-anchor="start" font-family="Helvetica, Arial, sans-serif" font-size="10" id="svg_7" y="53.076916" x="27.615463" fill-opacity="null" stroke-opacity="null" stroke-width="0" stroke="#000" fill="#fff">Stories</text><text transform="matrix(0.970731, 0, 0, 1, 0.321963, 0)" text-anchor="start" font-family="Helvetica, Arial, sans-serif" font-size="15px" id="svg_9" y="28" x="11" fill-opacity="null" stroke-opacity="null" stroke-width="0" stroke="#000" fill="#000000">Customer<title>Customer</title></text></g></g><g class="node" transform="translate(768, 914.2857142857143)"><g><rect height="55" width="136" y="2" x="2" stroke-width="1.5" stroke="#261D3D" fill="#e5def9"></rect><rect class="node-cursor" rx="15" id="svg_3" height="55" width="27" y="2" x="128" fill-opacity="null" stroke-opacity="null" stroke-width="1.5" stroke="#261D3D" fill="#261D3D"></rect><path class="node-cursor" d="m136.068832,43.620384l-2.59021,-2.617714l-2.588882,-2.618797l2.59024,-2.620651l2.588852,-2.618637l0,2.912262c0.634644,0 1.371964,0 1.619019,0c1.177826,0.058113 2.631546,-1.566666 4.178146,-3.661186c0.576538,-0.734396 1.158203,-1.542364 1.774643,-2.271933c-0.61644,-0.730408 -1.19722,-1.537476 -1.774643,-2.271835c-1.5466,-2.091599 -3.00032,-3.719345 -4.176544,-3.660141l-1.620621,-0.000969l0,2.916115l-2.588852,-2.61969l-2.59024,-2.621704l2.59024,-2.624466l2.588852,-2.620651l0,2.914246l1.619736,0c2.405655,0.059059 4.203537,2.563507 5.776794,4.598969c1.561798,2.147858 2.965622,3.764832 3.779846,3.660172l4.644531,0l0,4.652327l-4.646057,0c-0.813507,-0.105713 -2.218048,1.512314 -3.779678,3.66011c-1.57254,2.03653 -3.369781,4.538857 -5.776154,4.599007l-1.619019,0l0,2.915169l0,0z" stroke-opacity="null" stroke-width="1" stroke="#fff" fill="#261D3D"></path><rect class="node-cursor" height="13" width="82.230823" y="43.461531" x="2.615396" stroke-opacity="null" stroke-width="1" stroke="#261D3D" fill="#261D3D"></rect><text class="node-cursor" text-anchor="start" font-family="Helvetica, Arial, sans-serif" font-size="10" id="svg_7" y="53.076916" x="27.615463" fill-opacity="null" stroke-opacity="null" stroke-width="0" stroke="#000" fill="#fff">Stories</text><text transform="matrix(0.970731, 0, 0, 1, 0.321963, 0)" text-anchor="start" font-family="Helvetica, Arial, sans-serif" font-size="15px" id="svg_9" y="28" x="11" fill-opacity="null" stroke-opacity="null" stroke-width="0" stroke="#000" fill="#000000">create<title>create</title></text></g></g><g class="node" transform="translate(1152, 914.2857142857143)"><g><rect height="55" width="136" y="2" x="2" stroke-width="1.5" stroke="#261D3D" fill="#e5def9"></rect><rect class="node-cursor" height="13" width="136" y="43.461531" x="2.615396" stroke-opacity="null" stroke-width="1" stroke="#261D3D" fill="#261D3D"></rect><text class="node-cursor" text-anchor="start" font-family="Helvetica, Arial, sans-serif" font-size="10" id="svg_7" y="53.076916" x="27.615463" fill-opacity="null" stroke-opacity="null" stroke-width="0" stroke="#000" fill="#fff">Stories</text><text transform="matrix(0.970731, 0, 0, 1, 0.321963, 0)" text-anchor="start" font-family="Helvetica, Arial, sans-serif" font-size="15px" id="svg_9" y="28" x="11" fill-opacity="null" stroke-opacity="null" stroke-width="0" stroke="#000" fill="#000000">Account<title>Account</title></text></g></g><g class="node" transform="translate(384, 1085.7142857142858)"><g><rect height="55" width="136" y="2" x="2" stroke-width="1.5" stroke="#261D3D" fill="#e5def9"></rect><rect class="node-cursor" rx="15" id="svg_3" height="55" width="27" y="2" x="128" fill-opacity="null" stroke-opacity="null" stroke-width="1.5" stroke="#261D3D" fill="#261D3D"></rect><path class="node-cursor" d="m136.068832,43.620384l-2.59021,-2.617714l-2.588882,-2.618797l2.59024,-2.620651l2.588852,-2.618637l0,2.912262c0.634644,0 1.371964,0 1.619019,0c1.177826,0.058113 2.631546,-1.566666 4.178146,-3.661186c0.576538,-0.734396 1.158203,-1.542364 1.774643,-2.271933c-0.61644,-0.730408 -1.19722,-1.537476 -1.774643,-2.271835c-1.5466,-2.091599 -3.00032,-3.719345 -4.176544,-3.660141l-1.620621,-0.000969l0,2.916115l-2.588852,-2.61969l-2.59024,-2.621704l2.59024,-2.624466l2.588852,-2.620651l0,2.914246l1.619736,0c2.405655,0.059059 4.203537,2.563507 5.776794,4.598969c1.561798,2.147858 2.965622,3.764832 3.779846,3.660172l4.644531,0l0,4.652327l-4.646057,0c-0.813507,-0.105713 -2.218048,1.512314 -3.779678,3.66011c-1.57254,2.03653 -3.369781,4.538857 -5.776154,4.599007l-1.619019,0l0,2.915169l0,0z" stroke-opacity="null" stroke-width="1" stroke="#fff" fill="#261D3D"></path><rect class="node-cursor" height="13" width="82.230823" y="43.461531" x="2.615396" stroke-opacity="null" stroke-width="1" stroke="#261D3D" fill="#261D3D"></rect><text class="node-cursor" text-anchor="start" font-family="Helvetica, Arial, sans-serif" font-size="10" id="svg_7" y="53.076916" x="27.615463" fill-opacity="null" stroke-opacity="null" stroke-width="0" stroke="#000" fill="#fff">Stories</text><text transform="matrix(0.970731, 0, 0, 1, 0.321963, 0)" text-anchor="start" font-family="Helvetica, Arial, sans-serif" font-size="15px" id="svg_9" y="28" x="11" fill-opacity="null" stroke-opacity="null" stroke-width="0" stroke="#000" fill="#000000">Staff member<title>Staff member</title></text></g></g><g class="node" transform="translate(768, 1028.5714285714287)"><g><rect height="55" width="136" y="2" x="2" stroke-width="1.5" stroke="#261D3D" fill="#e5def9"></rect><rect class="node-cursor" rx="15" id="svg_3" height="55" width="27" y="2" x="128" fill-opacity="null" stroke-opacity="null" stroke-width="1.5" stroke="#261D3D" fill="#261D3D"></rect><path class="node-cursor" d="m136.068832,43.620384l-2.59021,-2.617714l-2.588882,-2.618797l2.59024,-2.620651l2.588852,-2.618637l0,2.912262c0.634644,0 1.371964,0 1.619019,0c1.177826,0.058113 2.631546,-1.566666 4.178146,-3.661186c0.576538,-0.734396 1.158203,-1.542364 1.774643,-2.271933c-0.61644,-0.730408 -1.19722,-1.537476 -1.774643,-2.271835c-1.5466,-2.091599 -3.00032,-3.719345 -4.176544,-3.660141l-1.620621,-0.000969l0,2.916115l-2.588852,-2.61969l-2.59024,-2.621704l2.59024,-2.624466l2.588852,-2.620651l0,2.914246l1.619736,0c2.405655,0.059059 4.203537,2.563507 5.776794,4.598969c1.561798,2.147858 2.965622,3.764832 3.779846,3.660172l4.644531,0l0,4.652327l-4.646057,0c-0.813507,-0.105713 -2.218048,1.512314 -3.779678,3.66011c-1.57254,2.03653 -3.369781,4.538857 -5.776154,4.599007l-1.619019,0l0,2.915169l0,0z" stroke-opacity="null" stroke-width="1" stroke="#fff" fill="#261D3D"></path><rect class="node-cursor" height="13" width="82.230823" y="43.461531" x="2.615396" stroke-opacity="null" stroke-width="1" stroke="#261D3D" fill="#261D3D"></rect><text class="node-cursor" text-anchor="start" font-family="Helvetica, Arial, sans-serif" font-size="10" id="svg_7" y="53.076916" x="27.615463" fill-opacity="null" stroke-opacity="null" stroke-width="0" stroke="#000" fill="#fff">Stories</text><text transform="matrix(0.970731, 0, 0, 1, 0.321963, 0)" text-anchor="start" font-family="Helvetica, Arial, sans-serif" font-size="15px" id="svg_9" y="28" x="11" fill-opacity="null" stroke-opacity="null" stroke-width="0" stroke="#000" fill="#000000">perform<title>perform</title></text></g></g><g class="node" transform="translate(1152, 1028.5714285714287)"><g><rect height="55" width="136" y="2" x="2" stroke-width="1.5" stroke="#261D3D" fill="#e5def9"></rect><rect class="node-cursor" height="13" width="136" y="43.461531" x="2.615396" stroke-opacity="null" stroke-width="1" stroke="#261D3D" fill="#261D3D"></rect><text class="node-cursor" text-anchor="start" font-family="Helvetica, Arial, sans-serif" font-size="10" id="svg_7" y="53.076916" x="27.615463" fill-opacity="null" stroke-opacity="null" stroke-width="0" stroke="#000" fill="#fff">Stories</text><text transform="matrix(0.970731, 0, 0, 1, 0.321963, 0)" text-anchor="start" font-family="Helvetica, Arial, sans-serif" font-size="15px" id="svg_9" y="28" x="11" fill-opacity="null" stroke-opacity="null" stroke-width="0" stroke="#000" fill="#000000">Review<title>Review</title></text></g></g><g class="node" transform="translate(768, 1142.857142857143)"><g><rect height="55" width="136" y="2" x="2" stroke-width="1.5" stroke="#261D3D" fill="#e5def9"></rect><rect class="node-cursor" rx="15" id="svg_3" height="55" width="27" y="2" x="128" fill-opacity="null" stroke-opacity="null" stroke-width="1.5" stroke="#261D3D" fill="#261D3D"></rect><path class="node-cursor" d="m136.068832,43.620384l-2.59021,-2.617714l-2.588882,-2.618797l2.59024,-2.620651l2.588852,-2.618637l0,2.912262c0.634644,0 1.371964,0 1.619019,0c1.177826,0.058113 2.631546,-1.566666 4.178146,-3.661186c0.576538,-0.734396 1.158203,-1.542364 1.774643,-2.271933c-0.61644,-0.730408 -1.19722,-1.537476 -1.774643,-2.271835c-1.5466,-2.091599 -3.00032,-3.719345 -4.176544,-3.660141l-1.620621,-0.000969l0,2.916115l-2.588852,-2.61969l-2.59024,-2.621704l2.59024,-2.624466l2.588852,-2.620651l0,2.914246l1.619736,0c2.405655,0.059059 4.203537,2.563507 5.776794,4.598969c1.561798,2.147858 2.965622,3.764832 3.779846,3.660172l4.644531,0l0,4.652327l-4.646057,0c-0.813507,-0.105713 -2.218048,1.512314 -3.779678,3.66011c-1.57254,2.03653 -3.369781,4.538857 -5.776154,4.599007l-1.619019,0l0,2.915169l0,0z" stroke-opacity="null" stroke-width="1" stroke="#fff" fill="#261D3D"></path><rect class="node-cursor" height="13" width="82.230823" y="43.461531" x="2.615396" stroke-opacity="null" stroke-width="1" stroke="#261D3D" fill="#261D3D"></rect><text class="node-cursor" text-anchor="start" font-family="Helvetica, Arial, sans-serif" font-size="10" id="svg_7" y="53.076916" x="27.615463" fill-opacity="null" stroke-opacity="null" stroke-width="0" stroke="#000" fill="#fff">Stories</text><text transform="matrix(0.970731, 0, 0, 1, 0.321963, 0)" text-anchor="start" font-family="Helvetica, Arial, sans-serif" font-size="15px" id="svg_9" y="28" x="11" fill-opacity="null" stroke-opacity="null" stroke-width="0" stroke="#000" fill="#000000">record<title>record</title></text></g></g><g class="node" transform="translate(1152, 1142.857142857143)"><g><rect height="55" width="136" y="2" x="2" stroke-width="1.5" stroke="#261D3D" fill="#e5def9"></rect><rect class="node-cursor" height="13" width="136" y="43.461531" x="2.615396" stroke-opacity="null" stroke-width="1" stroke="#261D3D" fill="#261D3D"></rect><text class="node-cursor" text-anchor="start" font-family="Helvetica, Arial, sans-serif" font-size="10" id="svg_7" y="53.076916" x="27.615463" fill-opacity="null" stroke-opacity="null" stroke-width="0" stroke="#000" fill="#fff">Stories</text><text transform="matrix(0.970731, 0, 0, 1, 0.321963, 0)" text-anchor="start" font-family="Helvetica, Arial, sans-serif" font-size="15px" id="svg_9" y="28" x="11" fill-opacity="null" stroke-opacity="null" stroke-width="0" stroke="#000" fill="#000000">Note<title>Note</title></text></g></g><path fill="none" stroke="#261D3D" stroke-width="1.5" class="link" d="M154,600.4285714285714C269,600.4285714285714 269,86.14285714285714 384,86.14285714285714"></path><path fill="none" stroke="#261D3D" stroke-width="1.5" class="link" d="M154,600.4285714285714C269,600.4285714285714 269,200.42857142857144 384,200.42857142857144"></path><path fill="none" stroke="#261D3D" stroke-width="1.5" class="link" d="M154,600.4285714285714C269,600.4285714285714 269,571.8571428571429 384,571.8571428571429"></path><path fill="none" stroke="#261D3D" stroke-width="1.5" class="link" d="M154,600.4285714285714C269,600.4285714285714 269,943.2857142857143 384,943.2857142857143"></path><path fill="none" stroke="#261D3D" stroke-width="1.5" class="link" d="M154,600.4285714285714C269,600.4285714285714 269,1114.7142857142858 384,1114.7142857142858"></path><path fill="none" stroke="#261D3D" stroke-width="1.5" class="link" d="M538,86.14285714285714C653,86.14285714285714 653,86.14285714285714 768,86.14285714285714"></path><path fill="none" stroke="#261D3D" stroke-width="1.5" class="link" d="M538,200.42857142857144C653,200.42857142857144 653,200.42857142857144 768,200.42857142857144"></path><path fill="none" stroke="#261D3D" stroke-width="1.5" class="link" d="M538,571.8571428571429C653,571.8571428571429 653,314.7142857142857 768,314.7142857142857"></path><path fill="none" stroke="#261D3D" stroke-width="1.5" class="link" d="M538,571.8571428571429C653,571.8571428571429 653,457.5714285714286 768,457.5714285714286"></path><path fill="none" stroke="#261D3D" stroke-width="1.5" class="link" d="M538,571.8571428571429C653,571.8571428571429 653,600.4285714285714 768,600.4285714285714"></path><path fill="none" stroke="#261D3D" stroke-width="1.5" class="link" d="M538,571.8571428571429C653,571.8571428571429 653,714.7142857142858 768,714.7142857142858"></path><path fill="none" stroke="#261D3D" stroke-width="1.5" class="link" d="M538,571.8571428571429C653,571.8571428571429 653,829 768,829"></path><path fill="none" stroke="#261D3D" stroke-width="1.5" class="link" d="M538,943.2857142857143C653,943.2857142857143 653,943.2857142857143 768,943.2857142857143"></path><path fill="none" stroke="#261D3D" stroke-width="1.5" class="link" d="M538,1114.7142857142858C653,1114.7142857142858 653,1057.5714285714287 768,1057.5714285714287"></path><path fill="none" stroke="#261D3D" stroke-width="1.5" class="link" d="M538,1114.7142857142858C653,1114.7142857142858 653,1171.857142857143 768,1171.857142857143"></path><path fill="none" stroke="#261D3D" stroke-width="1.5" class="link" d="M922,86.14285714285714C1037,86.14285714285714 1037,86.14285714285714 1152,86.14285714285714"></path><path fill="none" stroke="#261D3D" stroke-width="1.5" class="link" d="M922,200.42857142857144C1037,200.42857142857144 1037,200.42857142857144 1152,200.42857142857144"></path><path fill="none" stroke="#261D3D" stroke-width="1.5" class="link" d="M922,314.7142857142857C1037,314.7142857142857 1037,314.7142857142857 1152,314.7142857142857"></path><path fill="none" stroke="#261D3D" stroke-width="1.5" class="link" d="M922,457.5714285714286C1037,457.5714285714286 1037,429 1152,429"></path><path fill="none" stroke="#261D3D" stroke-width="1.5" class="link" d="M922,457.5714285714286C1037,457.5714285714286 1037,486.14285714285717 1152,486.14285714285717"></path><path fill="none" stroke="#261D3D" stroke-width="1.5" class="link" d="M922,600.4285714285714C1037,600.4285714285714 1037,600.4285714285714 1152,600.4285714285714"></path><path fill="none" stroke="#261D3D" stroke-width="1.5" class="link" d="M922,714.7142857142858C1037,714.7142857142858 1037,714.7142857142858 1152,714.7142857142858"></path><path fill="none" stroke="#261D3D" stroke-width="1.5" class="link" d="M922,829C1037,829 1037,829 1152,829"></path><path fill="none" stroke="#261D3D" stroke-width="1.5" class="link" d="M922,943.2857142857143C1037,943.2857142857143 1037,943.2857142857143 1152,943.2857142857143"></path><path fill="none" stroke="#261D3D" stroke-width="1.5" class="link" d="M922,1057.5714285714287C1037,1057.5714285714287 1037,1057.5714285714287 1152,1057.5714285714287"></path><path fill="none" stroke="#261D3D" stroke-width="1.5" class="link" d="M922,1171.857142857143C1037,1171.857142857143 1037,1171.857142857143 1152,1171.857142857143"></path></g></svg>
